<svg width="43" height="44" viewBox="0 0 43 44" fill="none" xmlns="http://www.w3.org/2000/svg">
<path d="M22.4018 10.6263L28.5273 7.75435C23.7244 4.98166 18.2545 3.42794 12.6994 3.26172C12.4257 3.391 8.92703 5.02784 8.52679 5.231C7.03164 5.99054 6.18976 6.64851 5.43988 8.34537L5.21216 8.8625C7.09145 8.49312 8.99835 8.30612 10.9075 8.30612C11.8483 8.30612 12.7891 8.34998 13.7276 8.44233C16.7133 8.72629 19.6323 9.46275 22.4041 10.624L22.4018 10.6263Z" fill="white"/>
<path d="M30.3146 6.91727C31.9592 6.14618 33.4406 5.74447 34.7287 5.71908L33.5671 5.20425C29.4773 3.38734 23.2942 0.642357 22.8549 0.453047C22.2223 0.178318 21.7899 0.0351817 21.1826 0.0051692C20.2763 -0.0386952 19.2665 0.196787 18.1808 0.70469C18.1394 0.725468 16.0623 1.69048 13.8472 2.72476C19.2274 3.07798 24.5019 4.71712 29.1207 7.47596L30.3146 6.91496V6.91727Z" fill="white"/>
<path d="M42.6599 20.4074C42.1975 18.7706 39.9686 11.6438 39.527 10.2309L39.5132 10.1893C39.1612 9.04421 38.6552 8.13461 38.0134 7.48587C37.4176 6.88332 36.7989 6.64091 36.7943 6.6386C35.3313 5.98525 33.4037 6.16533 31.0621 7.16959L30.977 7.20653C30.8344 7.26886 30.6895 7.3335 30.5445 7.40276L27.8073 8.68637L30.9816 18.9876C31.5175 20.7468 31.8304 22.1412 30.9701 24.0897L29.3415 27.7789C28.4973 29.6928 27.2299 30.4246 25.7831 31.1218C25.2379 31.3758 12.4624 37.3621 12.3704 37.4014C10.8545 38.0755 9.479 38.431 8.27368 38.4541L19.8784 43.6093C21.3896 44.2927 23.4414 44.0711 25.8958 42.9652C25.9073 42.9606 31.1518 40.518 31.253 40.4696C31.7292 40.2456 32.1685 40.0448 32.5757 39.8578C35.5062 38.5141 36.6034 38.0109 37.5603 35.843L42.4368 24.7938C43.1912 23.0854 43.1038 21.975 42.6622 20.4074H42.6599Z" fill="white"/>
<path d="M0.577126 24.6208C2.12518 23.4365 3.85956 22.5269 5.73425 21.9174C6.71185 21.6034 7.73546 21.3749 8.77976 21.2387C9.71826 21.1209 10.6913 21.0794 11.6735 21.1209C11.7609 20.7769 11.8782 20.4376 12.0346 20.0866L13.6609 16.402C13.7805 16.1342 13.9093 15.8849 14.0519 15.6448C12.0346 15.3077 9.98968 15.2246 7.97238 15.3932C5.84006 15.5732 3.73764 16.035 1.72264 16.7668L0.561023 19.3987C-0.276263 21.2987 -0.0968426 22.4138 0.577126 24.6208Z" fill="white"/>
<path d="M11.3536 31.449C12.1771 31.2413 13.0305 31.1674 13.8884 31.2297L12.6831 27.3143C11.7538 27.2242 10.8383 27.2496 9.96196 27.3927C8.99586 27.552 8.06656 27.8383 7.19707 28.2446C5.4995 29.0296 3.98594 30.2647 2.82202 31.8184L3.4914 33.9793C3.84563 35.129 4.34938 36.0386 4.99114 36.6828C5.14986 36.8421 5.32238 36.9898 5.5041 37.1214C5.74563 36.2811 6.11136 35.4961 6.59441 34.7827C7.15337 33.9562 7.85033 33.2475 8.66921 32.6749C9.4858 32.1024 10.3898 31.6915 11.3559 31.449H11.3536Z" fill="white"/>
<path d="M12.5083 26.7508L11.9931 25.0793C11.6595 23.9758 11.3766 22.8838 11.5629 21.6487C10.6405 21.621 9.72964 21.6648 8.84865 21.7803C7.84115 21.9188 6.84975 22.145 5.90666 22.4521C4.02506 23.0754 2.29528 24.0081 0.765625 25.2248L0.94505 25.7904C1.07616 26.2036 2.01926 29.2418 2.60121 31.1164C3.79274 29.6505 5.29479 28.4777 6.95556 27.7227C7.87336 27.2979 8.85325 27.0024 9.86996 26.8408C10.721 26.7069 11.6089 26.6769 12.506 26.7508H12.5083Z" fill="white"/>
<path d="M12.4601 36.7684L15.1974 35.4871L14.0588 31.791C13.187 31.7102 12.3244 31.7771 11.4894 31.9918C10.5923 32.2227 9.75272 32.6105 8.99594 33.1461C8.23916 33.684 7.59279 34.3466 7.07984 35.1154C6.60369 35.8242 6.25406 36.6114 6.03784 37.4518C7.51689 38.1998 9.50199 38.0474 11.9425 36.9993C11.9724 36.9877 12.3175 36.8354 12.4624 36.7661L12.4601 36.7684Z" fill="white"/>
<path d="M14.3831 15.1446C15.0778 14.2188 15.9611 13.6647 17.1457 13.0922L17.4907 12.926L21.737 10.9359C19.1492 9.91086 16.4372 9.26444 13.6746 9.01048C10.7372 8.73806 7.79064 8.91583 4.91305 9.53917L2.05615 16.0126C3.96765 15.3777 5.94125 14.976 7.92865 14.819C10.0771 14.6482 12.2485 14.759 14.3831 15.1469V15.1446Z" fill="white"/>
</svg>
