<svg width="24" height="24" viewBox="0 0 24 24" fill="none" xmlns="http://www.w3.org/2000/svg">
<path d="M4.8 18.8H5C5.65823 18.8 6.43994 18.8015 7.18715 18.803L7.31872 18.8033C8.01774 18.8047 8.6779 18.806 9.168 18.806H9.30717L9.35553 18.9365C9.77412 20.0659 10.8175 20.8001 12 20.8001C13.182 20.8001 14.2216 20.0624 14.6364 18.9379L14.6845 18.8073L14.8237 18.8071L18.9997 18.8L19.2 18.7997V19L4.8 18.8ZM4.8 18.8V19M4.8 18.8V19M4.8 19H5M4.8 19H5M5 19V19.2M5 19V19.2M5 22.0001H4.8V22.2001H5V22.0001ZM5 22.0001V19.2M5 22.0001H19V22.2001H19.2V22.0001V22V21.9999V21.9997V21.9995V21.9993V21.999V21.9987V21.9983V21.9979V21.9975V21.997V21.9965V21.9959V21.9953V21.9946V21.9939V21.9932V21.9924V21.9916V21.9908V21.9899V21.9889V21.988V21.9869V21.9859V21.9848V21.9837V21.9825V21.9813V21.98V21.9787V21.9774V21.976V21.9746V21.9732V21.9717V21.9701V21.9686V21.967V21.9653V21.9637V21.9619V21.9602V21.9584V21.9566V21.9547V21.9528V21.9508V21.9489V21.9468V21.9448V21.9427V21.9406V21.9384V21.9362V21.934V21.9317V21.9294V21.927V21.9247V21.9222V21.9198V21.9173V21.9148V21.9122V21.9096V21.907V21.9043V21.9016V21.8989V21.8961V21.8933V21.8905V21.8876V21.8847V21.8818V21.8788V21.8758V21.8727V21.8697V21.8666V21.8634V21.8602V21.857V21.8538V21.8505V21.8472V21.8439V21.8405V21.8371V21.8337V21.8302V21.8267V21.8232V21.8196V21.816V21.8124V21.8087V21.805V21.8013V21.7976V21.7938V21.79V21.7861V21.7822V21.7783V21.7744V21.7704V21.7664V21.7624V21.7584V21.7543V21.7502V21.746V21.7418V21.7376V21.7334V21.7292V21.7249V21.7205V21.7162V21.7118V21.7074V21.703V21.6985V21.694V21.6895V21.685V21.6804V21.6758V21.6712V21.6665V21.6618V21.6571V21.6524V21.6476V21.6428V21.638V21.6332V21.6283V21.6234V21.6185V21.6135V21.6085V21.6035V21.5985V21.5934V21.5884V21.5833V21.5781V21.573V21.5678V21.5626V21.5574V21.5521V21.5468V21.5415V21.5362V21.5308V21.5255V21.5201V21.5146V21.5092V21.5037V21.4982V21.4927V21.4872V21.4816V21.476V21.4704V21.4648V21.4591V21.4534V21.4477V21.442V21.4363V21.4305V21.4247V21.4189V21.4131V21.4072V21.4013V21.3954V21.3895V21.3836V21.3776V21.3716V21.3656V21.3596V21.3535V21.3475V21.3414V21.3353V21.3291V21.323V21.3168V21.3106V21.3044V21.2982V21.292V21.2857V21.2794V21.2731V21.2668V21.2604V21.2541V21.2477V21.2413V21.2349V21.2285V21.222V21.2155V21.2091V21.2025V21.196V21.1895V21.1829V21.1763V21.1698V21.1631V21.1565V21.1499V21.1432V21.1365V21.1298V21.1231V21.1164V21.1097V21.1029V21.0961V21.0893V21.0825V21.0757V21.0689V21.062L5 19.2M6.34799 4.52601L6.34829 4.5256C6.49825 4.32459 6.74764 4.2 7 4.2H17C17.2524 4.2 17.5017 4.32459 17.6517 4.5256L17.652 4.52601L20.6518 8.52571C20.6522 8.52644 20.6554 8.53155 20.6612 8.54313C20.6681 8.55699 20.6763 8.57539 20.6855 8.59805C20.7038 8.64335 20.7232 8.69926 20.7412 8.75725C20.7591 8.81515 20.7746 8.87239 20.7855 8.91996C20.7909 8.94377 20.7948 8.96375 20.7973 8.97931C20.8 8.99617 20.8 9.00204 20.8 9.00014V13C20.8 13.9936 19.9945 14.8 19 14.8H5C4.00546 14.8 3.2 13.9946 3.2 13V9.00014C3.2 9.00037 3.2 9.00049 3.20001 9.00049C3.20005 9.00049 3.20036 8.99416 3.20272 8.97931C3.2052 8.96375 3.20912 8.94377 3.21454 8.91996C3.22537 8.87239 3.2409 8.81515 3.25881 8.75725C3.27675 8.69926 3.29624 8.64335 3.31453 8.59805C3.32368 8.57539 3.33189 8.55699 3.3388 8.54313C3.34505 8.5306 3.34833 8.52565 3.3483 8.52562L6.34799 4.52601ZM7.5 5.80001H7.4L7.34 5.88001L5.84 7.88001L5.6 8.20001H6H6.00944H6.01889H6.02835H6.03781H6.04728H6.05675H6.06623H6.07571H6.0852H6.0947H6.1042H6.11371H6.12322H6.13274H6.14227H6.15179H6.16133H6.17087H6.18041H6.18996H6.19952H6.20908H6.21864H6.22821H6.23778H6.24736H6.25694H6.26653H6.27612H6.28571H6.29531H6.30491H6.31452H6.32413H6.33375H6.34336H6.35299H6.36261H6.37224H6.38187H6.39151H6.40115H6.41079H6.42044H6.43009H6.43974H6.44939H6.45905H6.46871H6.47837H6.48804H6.49771H6.50738H6.51705H6.52673H6.53641H6.54609H6.55577H6.56545H6.57514H6.58483H6.59452H6.60421H6.6139H6.6236H6.63329H6.64299H6.65269H6.66239H6.67209H6.68179H6.6915H6.7012H6.71091H6.72061H6.73032H6.74003H6.74974H6.75945H6.76916H6.77887H6.78858H6.79829H6.808H6.81771H6.82742H6.83713H6.84685H6.85656H6.86627H6.87598H6.88569H6.8954H6.9051H6.91481H6.92452H6.93423H6.94393H6.95364H6.96334H6.97304H6.98274H6.99244H7.00214H7.01184H7.02154H7.03123H7.04092H7.05061H7.0603H7.06999H7.07968H7.08936H7.09904H7.10872H7.1184H7.12807H7.13775H7.14742H7.15709H7.16675H7.17641H7.18607H7.19573H7.20538H7.21503H7.22468H7.23433H7.24397H7.25361H7.26324H7.27288H7.2825H7.29213H7.30175H7.31137H7.32098H7.33059H7.3402H7.3498H7.3594H7.36899H7.37858H7.38817H7.39775H7.40732H7.41689H7.42646H7.43603H7.44558H7.45514H7.46468H7.47423H7.48377H7.4933H7.50283H7.51235H7.52187H7.53138H7.54088H7.55039H7.55988H7.56937H7.57885H7.58833H7.5978H7.60727H7.61673H7.62618H7.63563H7.64507H7.65451H7.66394H7.67336H7.68277H7.69218H7.70158H7.71098H7.72037H7.72975H7.73912H7.74849H7.75785H7.7672H7.77654H7.78588H7.79521H7.80453H7.81385H7.82316H7.83246H7.84175H7.85103H7.86031H7.86957H7.87883H7.88808H7.89733H7.90656H7.91579H7.92501H7.93421H7.94341H7.95261H7.96179H7.97096H7.98013H7.98928H7.99843H8.00756H8.01669H8.02581H8.03492H8.04402H8.05311H8.06219H8.07126H8.08032H8.08937H8.09841H8.10744H8.11646H8.12547H8.13448H8.14347H8.15244H8.16141H8.17037H8.17932H8.18826H8.19718H8.2061H8.215H8.2239H8.23278H8.24165H8.25051H8.25936H8.2682H8.27703H8.28584H8.29464H8.30343H8.31221H8.32098H8.32974H8.33848H8.34721H8.35593H8.36464H8.37334H8.38202H8.39069H8.39935H8.40799H8.41663H8.42525H8.43385H8.44245H8.45103H8.4596H8.46815H8.47669H8.48522H8.49374H8.50224H8.51073H8.51921H8.52767H8.53612H8.54455H8.55297H8.56138H8.56977H8.57815H8.58651H8.59486H8.6032H8.61152H8.61983H8.62812H8.6364H8.64466H8.65291H8.66114H8.66936H8.67757H8.68576H8.69393H8.70209H8.71023H8.71836H8.72647H8.73457H8.74265H8.75072H8.75877H8.7668H8.77482H8.78282H8.79081H8.79878H8.80674H8.81467H8.8226H8.8305H8.83839H8.84626H8.85412H8.86196H8.86978H8.87759H8.88538H8.89315H8.90091H8.90864H8.91637H8.92407H8.93176H8.93942H8.94708H8.95471H8.96233H8.96992H8.9775H8.98507H8.99261H9.00014H9.00765H9.01514H9.02261H9.03007H9.0375H9.04492H9.05232H9.0597H9.06706H9.0744H9.08173H9.08903H9.09632H9.10358H9.11083H9.11806H9.12527H9.13246H9.13963H9.14678H9.15391H9.16102H9.16812H9.17519H9.18224H9.18927H9.19629H9.20328H9.21025H9.2172H9.22414H9.23105H9.23794H9.24481H9.25166H9.25849H9.2653H9.27208H9.27885H9.28559H9.29232H9.29902H9.30571H9.31237H9.31901H9.32562H9.33222H9.3388H9.34535H9.35188H9.35839H9.36488H9.37134H9.37779H9.38421H9.39061H9.39699H9.40334H9.40967H9.41598H9.42227H9.42854H9.43478H9.441H9.4472H9.45337H9.45952H9.46565H9.47175H9.47783H9.48389H9.48993H9.49594H9.50193H9.50789H9.51383H9.51975H9.52564H9.53151H9.53735H9.54318H9.54897H9.55474H9.56049H9.56622H9.57192H9.57759H9.58324H9.58887H9.59447H9.60005H9.6056H9.61112H9.61663H9.6221H9.62755H9.63298H9.63838H9.64376H9.64911H9.65443H9.65973H9.665H9.67025H9.67547H9.68067H9.68584H9.69098H9.6961H9.70119H9.70626H9.71129H9.71631H9.72129H9.72625H9.73118H9.73609H9.74097H9.74582H9.75065H9.75544H9.76022H9.76496H9.76968H9.77437H9.77903H9.78366H9.78827H9.79285H9.7974H9.80192H9.80642H9.81089H9.81533H9.81974H9.82412H9.82848H9.83281H9.83711H9.84138H9.84562H9.84983H9.85402H9.85817H9.8623H9.8664H9.87047H9.87451H9.87852H9.8825H9.88646H9.89038H9.89427H9.89814H9.90197H9.90578H9.90955H9.9133H9.91702H9.9207H9.92436H9.92799H9.93158H9.93515H9.93868H9.94219H9.94566H9.94911H9.95252H9.9559H9.95925H9.96258H9.96587H9.96913H9.97235H9.97555H9.97872H9.98185H9.98496H9.98803H9.99107H9.99408H9.99705H10C10.4415 8.20001 10.8 8.55847 10.8 9.00002C10.8 9.66247 11.3375 10.2 12 10.2C12.6625 10.2 13.2 9.66247 13.2 9.00002C13.2 8.55847 13.5585 8.20001 14 8.20001H18H18.4L18.16 7.88001L16.66 5.88001L16.6 5.80001H16.5H7.5ZM5 9.80002H4.8V10V13V13.2H5H19H19.2V13V12.9999V12.9998V12.9997V12.9995V12.9993V12.999V12.9987V12.9983V12.9979V12.9975V12.997V12.9964V12.9959V12.9953V12.9946V12.9939V12.9932V12.9924V12.9916V12.9907V12.9899V12.9889V12.9879V12.9869V12.9859V12.9848V12.9836V12.9825V12.9812V12.98V12.9787V12.9774V12.976V12.9746V12.9731V12.9716V12.9701V12.9686V12.9669V12.9653V12.9636V12.9619V12.9602V12.9584V12.9565V12.9547V12.9528V12.9508V12.9488V12.9468V12.9448V12.9427V12.9405V12.9384V12.9362V12.9339V12.9317V12.9293V12.927V12.9246V12.9222V12.9198V12.9173V12.9147V12.9122V12.9096V12.907V12.9043V12.9016V12.8989V12.8961V12.8933V12.8905V12.8876V12.8847V12.8817V12.8788V12.8758V12.8727V12.8696V12.8665V12.8634V12.8602V12.857V12.8538V12.8505V12.8472V12.8438V12.8405V12.8371V12.8336V12.8302V12.8267V12.8231V12.8196V12.816V12.8124V12.8087V12.805V12.8013V12.7975V12.7938V12.7899V12.7861V12.7822V12.7783V12.7744V12.7704V12.7664V12.7624V12.7583V12.7543V12.7501V12.746V12.7418V12.7376V12.7334V12.7291V12.7248V12.7205V12.7162V12.7118V12.7074V12.7029V12.6985V12.694V12.6895V12.6849V12.6804V12.6758V12.6711V12.6665V12.6618V12.6571V12.6523V12.6476V12.6428V12.638V12.6331V12.6283V12.6234V12.6184V12.6135V12.6085V12.6035V12.5985V12.5934V12.5883V12.5832V12.5781V12.573V12.5678V12.5626V12.5573V12.5521V12.5468V12.5415V12.5362V12.5308V12.5254V12.52V12.5146V12.5092V12.5037V12.4982V12.4927V12.4871V12.4816V12.476V12.4704V12.4647V12.4591V12.4534V12.4477V12.442V12.4362V12.4305V12.4247V12.4189V12.413V12.4072V12.4013V12.3954V12.3895V12.3835V12.3776V12.3716V12.3656V12.3596V12.3535V12.3474V12.3414V12.3352V12.3291V12.323V12.3168V12.3106V12.3044V12.2982V12.2919V12.2857V12.2794V12.2731V12.2668V12.2604V12.2541V12.2477V12.2413V12.2349V12.2284V12.222V12.2155V12.209V12.2025V12.196V12.1895V12.1829V12.1763V12.1697V12.1631V12.1565V12.1498V12.1432V12.1365V12.1298V12.1231V12.1164V12.1096V12.1029V12.0961V12.0893V12.0825V12.0757V12.0688V12.062V12.0551V12.0482V12.0413V12.0344V12.0275V12.0206V12.0136V12.0066V11.9996V11.9926V11.9856V11.9786V11.9716V11.9645V11.9574V11.9504V11.9433V11.9362V11.929V11.9219V11.9148V11.9076V11.9004V11.8932V11.886V11.8788V11.8716V11.8644V11.8571V11.8499V11.8426V11.8353V11.828V11.8207V11.8134V11.8061V11.7987V11.7914V11.784V11.7767V11.7693V11.7619V11.7545V11.7471V11.7397V11.7322V11.7248V11.7173V11.7099V11.7024V11.6949V11.6874V11.6799V11.6724V11.6649V11.6574V11.6499V11.6423V11.6348V11.6272V11.6196V11.6121V11.6045V11.5969V11.5893V11.5817V11.5741V11.5665V11.5588V11.5512V11.5436V11.5359V11.5282V11.5206V11.5129V11.5052V11.4976V11.4899V11.4822V11.4745V11.4668V11.4591V11.4513V11.4436V11.4359V11.4282V11.4204V11.4127V11.4049V11.3972V11.3894V11.3817V11.3739V11.3661V11.3584V11.3506V11.3428V11.335V11.3272V11.3194V11.3116V11.3038V11.296V11.2882V11.2804V11.2726V11.2648V11.257V11.2491V11.2413V11.2335V11.2257V11.2178V11.21V11.2022V11.1943V11.1865V11.1787V11.1708V11.163V11.1551V11.1473V11.1394V11.1316V11.1237V11.1159V11.1081V11.1002V11.0924V11.0845V11.0767V11.0688V11.061V11.0531V11.0453V11.0374V11.0296V11.0217V11.0139V11.0061V10.9982V10.9904V10.9825V10.9747V10.9669V10.959V10.9512V10.9434V10.9356V10.9277V10.9199V10.9121V10.9043V10.8965V10.8886V10.8808V10.873V10.8652V10.8574V10.8496V10.8418V10.8341V10.8263V10.8185V10.8107V10.8029V10.7952V10.7874V10.7797V10.7719V10.7641V10.7564V10.7487V10.7409V10.7332V10.7255V10.7178V10.71V10.7023V10.6946V10.6869V10.6792V10.6716V10.6639V10.6562V10.6485V10.6409V10.6332V10.6256V10.618V10.6103V10.6027V10.5951V10.5875V10.5799V10.5723V10.5647V10.5571V10.5495V10.542V10.5344V10.5269V10.5194V10.5118V10.5043V10.4968V10.4893V10.4818V10.4743V10.4668V10.4594V10.4519V10.4445V10.437V10.4296V10.4222V10.4148V10.4074V10.4V10.3926V10.3853V10.3779V10.3706V10.3633V10.3559V10.3486V10.3413V10.334V10.3268V10.3195V10.3122V10.305V10.2978V10.2906V10.2834V10.2762V10.269V10.2618V10.2547V10.2475V10.2404V10.2333V10.2262V10.2191V10.212V10.205V10.1979V10.1909V10.1839V10.1769V10.1699V10.1629V10.1559V10.149V10.1421V10.1351V10.1282V10.1213V10.1145V10.1076V10.1008V10.0939V10.0871V10.0803V10.0735V10.0668V10.06V10.0533V10.0466V10.0399V10.0332V10.0265V10.0199V10.0132V10.0066V10V9.79992L18.9999 9.80002L14.8289 9.80203L14.6893 9.8021L14.6412 9.93317C14.2304 11.0535 13.1819 11.8 12 11.8C10.8181 11.8 9.73307 11.002 9.36945 9.92697L9.32348 9.79105H9.17999C8.68955 9.79105 8.02578 9.79304 7.32363 9.79514L7.19252 9.79553C6.44209 9.79778 5.65765 9.80002 5 9.80002ZM3.2 18C3.2 17.5585 3.55846 17.2 4 17.2H4.00444H4.00896H4.01357H4.01826H4.02304H4.0279H4.03285H4.03787H4.04299H4.04818H4.05346H4.05882H4.06426H4.06978H4.07539H4.08107H4.08684H4.09268H4.09861H4.10461H4.11069H4.11686H4.1231H4.12942H4.13581H4.14229H4.14884H4.15547H4.16217H4.16895H4.17581H4.18274H4.18975H4.19683H4.20398H4.21121H4.21852H4.2259H4.23335H4.24087H4.24847H4.25613H4.26387H4.27168H4.27957H4.28752H4.29554H4.30363H4.3118H4.32003H4.32833H4.3367H4.34514H4.35365H4.36222H4.37086H4.37957H4.38835H4.39719H4.4061H4.41507H4.42411H4.43321H4.44238H4.45162H4.46091H4.47027H4.4797H4.48919H4.49874H4.50835H4.51802H4.52776H4.53756H4.54741H4.55733H4.56731H4.57735H4.58745H4.59761H4.60783H4.6181H4.62844H4.63883H4.64928H4.65979H4.67035H4.68097H4.69165H4.70239H4.71318H4.72402H4.73492H4.74587H4.75688H4.76794H4.77906H4.79023H4.80145H4.81273H4.82405H4.83543H4.84686H4.85835H4.86988H4.88146H4.8931H4.90478H4.91652H4.9283H4.94013H4.95201H4.96394H4.97592H4.98794H5.00001H5.01213H5.0243H5.03651H5.04877H5.06107H5.07342H5.08581H5.09825H5.11073H5.12326H5.13582H5.14844H5.16109H5.17379H5.18653H5.19931H5.21214H5.225H5.23791H5.25086H5.26384H5.27687H5.28994H5.30304H5.31619H5.32937H5.34259H5.35585H5.36915H5.38248H5.39585H5.40926H5.4227H5.43618H5.4497H5.46325H5.47683H5.49045H5.50411H5.51779H5.53151H5.54527H5.55906H5.57288H5.58673H5.60061H5.61453H5.62847H5.64245H5.65646H5.6705H5.68456H5.69866H5.71279H5.72694H5.74113H5.75534H5.76958H5.78385H5.79814H5.81246H5.82681H5.84118H5.85558H5.87001H5.88446H5.89894H5.91343H5.92796H5.94251H5.95708H5.97167H5.98629H6.00093H6.01559H6.03027H6.04498H6.0597H6.07445H6.08922H6.10401H6.11881H6.13364H6.14849H6.16335H6.17823H6.19313H6.20805H6.22299H6.23794H6.25291H6.2679H6.2829H6.29792H6.31295H6.328H6.34307H6.35814H6.37324H6.38834H6.40346H6.41859H6.43374H6.4489H6.46407H6.47925H6.49444H6.50964H6.52486H6.54008H6.55532H6.57056H6.58582H6.60108H6.61635H6.63163H6.64692H6.66222H6.67752H6.69283H6.70815H6.72347H6.7388H6.75414H6.76948H6.78482H6.80017H6.81553H6.83088H6.84625H6.86161H6.87698H6.89235H6.90773H6.9231H6.93848H6.95386H6.96924H6.98462H7H7.01538H7.03076H7.04614H7.06152H7.0769H7.09227H7.10765H7.12302H7.13839H7.15375H7.16912H7.18447H7.19983H7.21518H7.23052H7.24586H7.2612H7.27653H7.29185H7.30717H7.32248H7.33778H7.35308H7.36837H7.38365H7.39892H7.41418H7.42944H7.44468H7.45992H7.47514H7.49036H7.50556H7.52075H7.53593H7.5511H7.56626H7.58141H7.59654H7.61166H7.62676H7.64186H7.65693H7.672H7.68705H7.70208H7.7171H7.7321H7.74709H7.76206H7.77701H7.79195H7.80687H7.82177H7.83665H7.85151H7.86636H7.88119H7.89599H7.91078H7.92555H7.9403H7.95502H7.96973H7.98441H7.99907H8.01371H8.02833H8.04292H8.05749H8.07204H8.08657H8.10106H8.11554H8.12999H8.14442H8.15882H8.17319H8.18754H8.20186H8.21615H8.23042H8.24466H8.25887H8.27306H8.28721H8.30134H8.31544H8.3295H8.34354H8.35755H8.37153H8.38547H8.39939H8.41327H8.42712H8.44094H8.45473H8.46849H8.48221H8.49589H8.50955H8.52317H8.53675H8.5503H8.56382H8.5773H8.59074H8.60415H8.61752H8.63085H8.64415H8.65741H8.67063H8.68381H8.69696H8.71006H8.72313H8.73616H8.74914H8.76209H8.775H8.78786H8.80069H8.81347H8.82621H8.83891H8.85156H8.86418H8.87674H8.88927H8.90175H8.91419H8.92658H8.93893H8.95123H8.96349H8.9757H8.98787H8.99999H9.01206H9.02408H9.03606H9.04799H9.05987H9.0717H9.08348H9.09522H9.1069H9.11854H9.13012H9.14165H9.15314H9.16457H9.17595H9.18727H9.19855H9.20977H9.22094H9.23206H9.24312H9.25413H9.26508H9.27598H9.28682H9.29761H9.30835H9.31903H9.32965H9.34021H9.35072H9.36117H9.37156H9.3819H9.39217H9.40239H9.41255H9.42265H9.43269H9.44267H9.45259H9.46244H9.47224H9.48198H9.49165H9.50126H9.51081H9.5203H9.52973H9.53909H9.54838H9.55762H9.56679H9.57589H9.58493H9.5939H9.60281H9.61165H9.62043H9.62914H9.63778H9.64635H9.65486H9.6633H9.67167H9.67997H9.6882H9.69637H9.70446H9.71248H9.72043H9.72832H9.73613H9.74387H9.75153H9.75913H9.76665H9.7741H9.78148H9.78879H9.79602H9.80317H9.81025H9.81726H9.82419H9.83105H9.83783H9.84453H9.85116H9.85771H9.86419H9.87058H9.8769H9.88314H9.88931H9.89539H9.90139H9.90732H9.91317H9.91893H9.92461H9.93022H9.93574H9.94118H9.94654H9.95182H9.95701H9.96213H9.96715H9.9721H9.97696H9.98174H9.98643H9.99104H9.99556H10C10.4415 17.2 10.8 17.5585 10.8 18C10.8 18.6625 11.3375 19.2 12 19.2C12.6625 19.2 13.2 18.6625 13.2 18C13.2 17.5585 13.5585 17.2 14 17.2H20C20.4415 17.2 20.8 17.5585 20.8 18V22.0001C20.8 22.9937 19.9945 23.8001 19 23.8001H5C4.00546 23.8001 3.2 22.9946 3.2 22.0001V18Z" fill="black" stroke="white" stroke-width="0.4"/>
</svg>
