<svg width="92" height="92" viewBox="0 0 92 92" fill="none" xmlns="http://www.w3.org/2000/svg">
<g opacity="0.3">
<path d="M26.1064 11.2305C17.9605 11.2305 11.4937 18.1458 11.4937 26.5638V64.8971C11.4937 73.3151 17.9605 80.2304 26.1064 80.2304H65.8772C74.0269 80.2304 80.4937 73.3151 80.4937 64.8971V26.5638C80.4937 18.1458 74.0269 11.2305 65.8772 11.2305H26.1064ZM26.1064 18.8971H65.8772C69.6875 18.8971 72.827 22.2781 72.827 26.5638H19.1603C19.1603 22.2781 22.2999 18.8971 26.1064 18.8971ZM19.1603 34.2305H26.827V72.5638H26.1064C22.2999 72.5638 19.1603 69.1828 19.1603 64.8971V34.2305ZM34.4937 34.2305H72.827V64.8971C72.827 69.1828 69.6875 72.5638 65.8772 72.5638H34.4937V34.2305ZM45.9937 41.8971C43.8777 41.8971 42.1603 43.6144 42.1603 45.7304C42.1603 47.8464 43.8777 49.5638 45.9937 49.5638H61.327C63.443 49.5638 65.1603 47.8464 65.1603 45.7304C65.1603 43.6144 63.443 41.8971 61.327 41.8971H45.9937ZM45.9937 57.2304C43.8777 57.2304 42.1603 58.9478 42.1603 61.0638C42.1603 63.1798 43.8777 64.8971 45.9937 64.8971H61.327C63.443 64.8971 65.1603 63.1798 65.1603 61.0638C65.1603 58.9478 63.443 57.2304 61.327 57.2304H45.9937Z" fill="#E8EAEC"/>
</g>
</svg>
