<svg width="24" height="24" viewBox="0 0 24 24" fill="none" xmlns="http://www.w3.org/2000/svg">
<path d="M7.1989 4.99219V4.79219H6.9989C6.5571 4.79219 6.1989 4.43377 6.1989 3.99219C6.1989 3.55061 6.5571 3.19219 6.9989 3.19219H20.9989C21.4404 3.19219 21.7989 3.55064 21.7989 3.99219C21.7989 4.43373 21.4404 4.79219 20.9989 4.79219H20.7989V4.99219V19.9922C20.7989 20.4337 20.4404 20.7922 19.9989 20.7922H15.9989C15.5574 20.7922 15.1989 20.4337 15.1989 19.9922V17.9922C15.1989 17.3297 14.6614 16.7922 13.9989 16.7922C13.3364 16.7922 12.7989 17.3297 12.7989 17.9922V19.9922C12.7989 20.4337 12.4404 20.7922 11.9989 20.7922H7.9989H3.9989C3.5571 20.7922 3.1989 20.4338 3.1989 19.9922V8.99219V8.79219H2.9989C2.5571 8.79219 2.1989 8.43377 2.1989 7.99219C2.1989 7.55061 2.5571 7.19219 2.9989 7.19219H3.9989H6.9989H7.1989V6.99219V4.99219ZM8.9989 4.79219H8.7989V4.99219V7.99219V18.9922V19.1922H8.9989H10.9989H11.1989V18.9922V17.9922C11.1989 16.4456 12.4524 15.1922 13.9989 15.1922C15.5454 15.1922 16.7989 16.4456 16.7989 17.9922V18.9922V19.1922H16.9989H18.9989H19.1989V18.9922V4.99219V4.79219H18.9989H8.9989ZM4.9989 8.79219H4.7989V8.99219V18.9922V19.1922H4.9989H6.9989H7.1989V18.9922V8.99219V8.79219H6.9989H4.9989ZM11.1989 7.99219C11.1989 7.55064 11.5574 7.19219 11.9989 7.19219C12.4404 7.19219 12.7989 7.55064 12.7989 7.99219C12.7989 8.43373 12.4404 8.79219 11.9989 8.79219C11.5574 8.79219 11.1989 8.43373 11.1989 7.99219ZM15.1989 7.99219C15.1989 7.55064 15.5574 7.19219 15.9989 7.19219C16.4404 7.19219 16.7989 7.55064 16.7989 7.99219C16.7989 8.43373 16.4404 8.79219 15.9989 8.79219C15.5574 8.79219 15.1989 8.43373 15.1989 7.99219ZM11.1989 11.9922C11.1989 11.5506 11.5574 11.1922 11.9989 11.1922C12.4404 11.1922 12.7989 11.5506 12.7989 11.9922C12.7989 12.4337 12.4404 12.7922 11.9989 12.7922C11.5574 12.7922 11.1989 12.4337 11.1989 11.9922ZM15.1989 11.9922C15.1989 11.5506 15.5574 11.1922 15.9989 11.1922C16.4404 11.1922 16.7989 11.5506 16.7989 11.9922C16.7989 12.4337 16.4404 12.7922 15.9989 12.7922C15.5574 12.7922 15.1989 12.4337 15.1989 11.9922Z" fill="black" stroke="white" stroke-width="0.4"/>
</svg>
