<svg width="22" height="22" viewBox="0 0 22 22" fill="none" xmlns="http://www.w3.org/2000/svg">
<path d="M4.58181 4.32083H4.38181V4.52083V8.1875C4.38181 8.58304 4.06068 8.90417 3.66514 8.90417C3.2696 8.90417 2.94847 8.58304 2.94847 8.1875V3.60417C2.94847 3.20862 3.2696 2.8875 3.66514 2.8875H8.24847C8.64402 2.8875 8.96514 3.20862 8.96514 3.60417C8.96514 3.99971 8.64402 4.32083 8.24847 4.32083H4.58181ZM17.6151 4.52083V4.32083H17.4151H13.7485C13.3529 4.32083 13.0318 3.99971 13.0318 3.60417C13.0318 3.20862 13.3529 2.8875 13.7485 2.8875H18.3318C18.7274 2.8875 19.0485 3.20862 19.0485 3.60417V8.1875C19.0485 8.58304 18.7274 8.90417 18.3318 8.90417C17.9363 8.90417 17.6151 8.58304 17.6151 8.1875V4.52083ZM4.38181 17.3542V17.5542H4.58181H8.24847C8.64402 17.5542 8.96514 17.8753 8.96514 18.2708C8.96514 18.6664 8.64402 18.9875 8.24847 18.9875H3.66514C3.2696 18.9875 2.94847 18.6664 2.94847 18.2708V13.6875C2.94847 13.292 3.2696 12.9708 3.66514 12.9708C4.06068 12.9708 4.38181 13.292 4.38181 13.6875V17.3542ZM17.4151 17.5542H17.6151V17.3542V13.6875C17.6151 13.292 17.9363 12.9708 18.3318 12.9708C18.7274 12.9708 19.0485 13.292 19.0485 13.6875V18.2708C19.0485 18.6664 18.7274 18.9875 18.3318 18.9875H13.7485C13.3529 18.9875 13.0318 18.6664 13.0318 18.2708C13.0318 17.8753 13.3529 17.5542 13.7485 17.5542H17.4151ZM8.44847 8.1875C8.44847 6.77904 9.59001 5.6375 10.9985 5.6375C12.4069 5.6375 13.5485 6.77904 13.5485 8.1875C13.5485 9.59596 12.4069 10.7375 10.9985 10.7375C9.59001 10.7375 8.44847 9.59596 8.44847 8.1875ZM6.63431 14.3783C7.05746 13.0362 8.56971 12.0542 10.0818 12.0542H11.9151C13.3854 12.0542 14.8882 13.0662 15.3356 14.3825C15.4934 14.8475 15.1553 15.3208 14.6651 15.3208H14.6624H14.6595H14.6564H14.6533H14.65H14.6466H14.6431H14.6394H14.6357H14.6318H14.6278H14.6236H14.6194H14.615H14.6105H14.6059H14.6012H14.5964H14.5914H14.5863H14.5812H14.5759H14.5704H14.5649H14.5593H14.5535H14.5476H14.5416H14.5355H14.5293H14.523H14.5166H14.51H14.5034H14.4966H14.4897H14.4828H14.4757H14.4685H14.4612H14.4538H14.4463H14.4386H14.4309H14.4231H14.4151H14.4071H14.399H14.3907H14.3824H14.3739H14.3654H14.3567H14.348H14.3391H14.3302H14.3211H14.312H14.3027H14.2934H14.2839H14.2744H14.2648H14.255H14.2452H14.2353H14.2253H14.2152H14.205H14.1947H14.1843H14.1738H14.1632H14.1526H14.1418H14.131H14.12H14.109H14.0979H14.0867H14.0754H14.064H14.0526H14.041H14.0294H14.0177H14.0059H13.994H13.982H13.9699H13.9578H13.9456H13.9333H13.9209H13.9084H13.8959H13.8832H13.8705H13.8577H13.8449H13.8319H13.8189H13.8058H13.7926H13.7794H13.766H13.7526H13.7392H13.7256H13.712H13.6983H13.6845H13.6706H13.6567H13.6427H13.6287H13.6145H13.6003H13.586H13.5717H13.5573H13.5428H13.5282H13.5136H13.4989H13.4842H13.4694H13.4545H13.4395H13.4245H13.4094H13.3943H13.3791H13.3638H13.3485H13.3331H13.3176H13.3021H13.2865H13.2709H13.2552H13.2394H13.2236H13.2077H13.1918H13.1758H13.1597H13.1436H13.1275H13.1113H13.095H13.0787H13.0623H13.0459H13.0294H13.0128H12.9962H12.9796H12.9629H12.9462H12.9294H12.9125H12.8956H12.8787H12.8617H12.8447H12.8276H12.8104H12.7933H12.776H12.7588H12.7414H12.7241H12.7067H12.6892H12.6717H12.6542H12.6366H12.619H12.6013H12.5836H12.5659H12.5481H12.5303H12.5124H12.4945H12.4766H12.4586H12.4406H12.4225H12.4044H12.3863H12.3682H12.35H12.3317H12.3135H12.2952H12.2769H12.2585H12.2401H12.2217H12.2032H12.1847H12.1662H12.1477H12.1291H12.1105H12.0919H12.0732H12.0545H12.0358H12.0171H11.9983H11.9795H11.9607H11.9419H11.923H11.9041H11.8852H11.8663H11.8473H11.8283H11.8093H11.7903H11.7713H11.7522H11.7331H11.714H11.6949H11.6758H11.6566H11.6374H11.6182H11.599H11.5798H11.5606H11.5413H11.5221H11.5028H11.4835H11.4642H11.4449H11.4256H11.4062H11.3869H11.3675H11.3481H11.3288H11.3094H11.29H11.2706H11.2512H11.2317H11.2123H11.1929H11.1734H11.154H11.1345H11.1151H11.0956H11.0762H11.0567H11.0372H11.0178H10.9983H10.9788H10.9594H10.9399H10.9204H10.9009H10.8815H10.862H10.8425H10.8231H10.8036H10.7842H10.7647H10.7453H10.7258H10.7064H10.6869H10.6675H10.6481H10.6287H10.6093H10.5899H10.5705H10.5511H10.5318H10.5124H10.4931H10.4737H10.4544H10.4351H10.4158H10.3965H10.3772H10.358H10.3387H10.3195H10.3003H10.2811H10.2619H10.2427H10.2236H10.2044H10.1853H10.1662H10.1471H10.1281H10.1091H10.09H10.071H10.0521H10.0331H10.0142H9.99528H9.97639H9.95753H9.93869H9.91988H9.9011H9.88234H9.8636H9.84489H9.82621H9.80756H9.78893H9.77033H9.75177H9.73323H9.71472H9.69624H9.67779H9.65937H9.64099H9.62263H9.60431H9.58603H9.56777H9.54955H9.53137H9.51322H9.4951H9.47702H9.45898H9.44097H9.423H9.40507H9.38718H9.36933H9.35151H9.33374H9.316H9.29831H9.28065H9.26304H9.24547H9.22795H9.21046H9.19302H9.17562H9.15827H9.14096H9.1237H9.10648H9.08931H9.07219H9.05511H9.03808H9.0211H9.00417H8.98728H8.97045H8.95367H8.93693H8.92025H8.90362H8.88704H8.87051H8.85404H8.83762H8.82125H8.80493H8.78868H8.77247H8.75632H8.74023H8.7242H8.70822H8.6923H8.67643H8.66063H8.64488H8.6292H8.61357H8.598H8.5825H8.56705H8.55167H8.53635H8.52109H8.5059H8.49077H8.4757H8.4607H8.44576H8.43088H8.41608H8.40134H8.38666H8.37206H8.35752H8.34305H8.32865H8.31432H8.30005H8.28586H8.27174H8.25769H8.24371H8.2298H8.21597H8.20221H8.18852H8.1749H8.16136H8.1479H8.13451H8.12119H8.10795H8.09479H8.08171H8.0687H8.05577H8.04292H8.03015H8.01746H8.00485H7.99232H7.97987H7.9675H7.95521H7.94301H7.93088H7.91884H7.90689H7.89502H7.88323H7.87153H7.85992H7.84839H7.83694H7.82559H7.81432H7.80314H7.79205H7.78104H7.77013H7.7593H7.74857H7.73793H7.72737H7.71691H7.70654H7.69627H7.68609H7.676H7.666H7.6561H7.6463H7.63659H7.62697H7.61745H7.60803H7.59871H7.58948H7.58036H7.57133H7.5624H7.55357H7.54484H7.53621H7.52768H7.51925H7.51093H7.5027H7.49458H7.48657H7.47866H7.47085H7.46314H7.45555H7.44805H7.44067H7.43339H7.42622H7.41915H7.41219H7.40535H7.39861H7.39198H7.38546H7.37905H7.37275H7.36656H7.36049H7.35453H7.34868H7.34294H7.33732H7.33181C6.84534 15.3208 6.48943 14.8379 6.63431 14.3783Z" fill="black" stroke="white" stroke-width="0.4"/>
</svg>
