<svg width="24" height="24" viewBox="0 0 24 24" fill="none" xmlns="http://www.w3.org/2000/svg">
<path d="M4.99835 4.72969H4.79835V4.92969V10.9297V11.1297H4.99835H7.99835H8.19835V10.9297V4.92969V4.72969H7.99835H4.99835ZM13.9984 5.72969H13.7984V5.92969V9.92969V10.1297H13.9984H17.9984H18.1984V9.92969V5.92969V5.72969H17.9984H13.9984ZM13.9984 15.7297H13.7984V15.9297V17.9297V18.1297H13.9984H18.9984H19.1984V17.9297V15.9297V15.7297H18.9984H13.9984ZM5.99835 16.7297H5.79835V16.9297V18.9297V19.1297H5.99835H7.99835H8.19835V18.9297V16.9297V16.7297H7.99835H5.99835ZM3.19835 4.92969C3.19835 3.93514 4.00381 3.12969 4.99835 3.12969H7.99835C8.9929 3.12969 9.79835 3.93514 9.79835 4.92969V10.9297C9.79835 11.9242 8.9929 12.7297 7.99835 12.7297H4.99835C4.00381 12.7297 3.19835 11.9242 3.19835 10.9297V4.92969ZM12.1984 5.92969C12.1984 4.93514 13.0038 4.12969 13.9984 4.12969H17.9984C18.9929 4.12969 19.7984 4.93514 19.7984 5.92969V9.92969C19.7984 10.9242 18.9929 11.7297 17.9984 11.7297H13.9984C13.0038 11.7297 12.1984 10.9242 12.1984 9.92969V5.92969ZM12.1984 15.9297C12.1984 14.9351 13.0038 14.1297 13.9984 14.1297H18.9984C19.9929 14.1297 20.7984 14.9351 20.7984 15.9297V17.9297C20.7984 18.9242 19.9929 19.7297 18.9984 19.7297H13.9984C13.0038 19.7297 12.1984 18.9242 12.1984 17.9297V15.9297ZM4.19835 16.5857C4.19835 15.7762 4.84481 15.1297 5.65436 15.1297H8.34235C9.15189 15.1297 9.79835 15.7762 9.79835 16.5857V19.2737C9.79835 20.0832 9.15189 20.7297 8.34235 20.7297H5.65436C4.84481 20.7297 4.19835 20.0832 4.19835 19.2737V16.5857Z" fill="black" stroke="white" stroke-width="0.4"/>
</svg>
