<svg width="24" height="24" viewBox="0 0 24 24" fill="none" xmlns="http://www.w3.org/2000/svg">
<path d="M18.9984 7.12969H19.1984V6.92969C19.1984 5.7187 18.3065 4.72969 17.1854 4.72969H6.81036C5.69015 4.72969 4.79835 5.71877 4.79835 6.92969V7.12969H4.99835H18.9984ZM4.99835 8.72969H4.79835V8.92969V16.9297C4.79835 18.1406 5.69015 19.1297 6.81036 19.1297H6.99835H7.19835V18.9297V8.92969V8.72969H6.99835H4.99835ZM8.99835 8.72969H8.79835V8.92969V18.9297V19.1297H8.99835H17.1854C18.3065 19.1297 19.1984 18.1407 19.1984 16.9297V8.92969V8.72969H18.9984H8.99835ZM3.19835 6.92969C3.19835 4.83384 4.80586 3.12969 6.81036 3.12969H17.1854C19.1909 3.12969 20.7984 4.83387 20.7984 6.92969V16.9297C20.7984 19.0255 19.1909 20.7297 17.1854 20.7297H6.81036C4.80586 20.7297 3.19835 19.0255 3.19835 16.9297V6.92969ZM11.1984 11.9297C11.1984 11.4881 11.5568 11.1297 11.9984 11.1297H15.9984C16.4399 11.1297 16.7984 11.4881 16.7984 11.9297C16.7984 12.3712 16.4399 12.7297 15.9984 12.7297H11.9984C11.5568 12.7297 11.1984 12.3712 11.1984 11.9297ZM11.1984 15.9297C11.1984 15.4881 11.5568 15.1297 11.9984 15.1297H15.9984C16.4399 15.1297 16.7984 15.4881 16.7984 15.9297C16.7984 16.3712 16.4399 16.7297 15.9984 16.7297H11.9984C11.5568 16.7297 11.1984 16.3712 11.1984 15.9297Z" fill="black" stroke="white" stroke-width="0.4"/>
</svg>
