<svg width="24" height="24" viewBox="0 0 24 24" fill="none" xmlns="http://www.w3.org/2000/svg">
<path d="M5.99835 2.99219C4.34145 2.99219 2.99835 4.33519 2.99835 5.99219V7.99219C2.99835 9.64919 4.34145 10.9922 5.99835 10.9922H6.99835V12.9922H5.99835C4.34145 12.9922 2.99835 14.3352 2.99835 15.9922V17.9922C2.99835 19.6492 4.34145 20.9922 5.99835 20.9922H17.9984C19.6554 20.9922 20.9984 19.6492 20.9984 17.9922V15.9922C20.9984 14.3352 19.6554 12.9922 17.9984 12.9922H16.9984V10.9922H17.9984C19.6554 10.9922 20.9984 9.64919 20.9984 7.99219V5.99219C20.9984 4.33519 19.6554 2.99219 17.9984 2.99219H5.99835ZM5.99835 4.99219H17.9984C18.5504 4.99219 18.9984 5.44019 18.9984 5.99219V7.99219C18.9984 8.54419 18.5504 8.99219 17.9984 8.99219H5.99835C5.44605 8.99219 4.99835 8.54419 4.99835 7.99219V5.99219C4.99835 5.44019 5.44605 4.99219 5.99835 4.99219ZM6.99835 5.99219C6.44605 5.99219 5.99835 6.44019 5.99835 6.99219C5.99835 7.54419 6.44605 7.99219 6.99835 7.99219C7.55065 7.99219 7.99835 7.54419 7.99835 6.99219C7.99835 6.44019 7.55065 5.99219 6.99835 5.99219ZM9.99835 5.99219C9.44605 5.99219 8.99835 6.44019 8.99835 6.99219C8.99835 7.54419 9.44605 7.99219 9.99835 7.99219C10.5504 7.99219 10.9984 7.54419 10.9984 6.99219C10.9984 6.44019 10.5504 5.99219 9.99835 5.99219ZM8.99835 10.9922H14.9984V12.9922H8.99835V10.9922ZM5.99835 14.9922H7.99835H15.9984H17.9984C18.5504 14.9922 18.9984 15.4402 18.9984 15.9922V17.9922C18.9984 18.5442 18.5504 18.9922 17.9984 18.9922H5.99835C5.44605 18.9922 4.99835 18.5442 4.99835 17.9922V15.9922C4.99835 15.4402 5.44605 14.9922 5.99835 14.9922ZM6.99835 15.9922C6.44605 15.9922 5.99835 16.4402 5.99835 16.9922C5.99835 17.5442 6.44605 17.9922 6.99835 17.9922C7.55065 17.9922 7.99835 17.5442 7.99835 16.9922C7.99835 16.4402 7.55065 15.9922 6.99835 15.9922ZM9.99835 15.9922C9.44605 15.9922 8.99835 16.4402 8.99835 16.9922C8.99835 17.5442 9.44605 17.9922 9.99835 17.9922C10.5504 17.9922 10.9984 17.5442 10.9984 16.9922C10.9984 16.4402 10.5504 15.9922 9.99835 15.9922Z" fill="black" stroke="white" stroke-width="0.5" stroke-linecap="round" stroke-linejoin="round"/>
</svg>
