<svg width="18" height="18" viewBox="0 0 18 18" fill="none" xmlns="http://www.w3.org/2000/svg">
<path d="M3.74878 3.59219H3.59878V3.74219V14.2422V14.3922H3.74878H6.74878H6.89878V14.2422V3.74219V3.59219H6.74878H3.74878ZM11.2488 3.59219H11.0988V3.74219V6.74219V6.89219H11.2488H14.2488H14.3988V6.74219V3.74219V3.59219H14.2488H11.2488ZM11.2488 11.0922H11.0988V11.2422V14.2422V14.3922H11.2488H14.2488H14.3988V14.2422V11.2422V11.0922H14.2488H11.2488ZM2.39878 3.74219C2.39878 2.99628 3.00287 2.39219 3.74878 2.39219H6.74878C7.49468 2.39219 8.09878 2.99628 8.09878 3.74219V14.2422C8.09878 14.9881 7.49468 15.5922 6.74878 15.5922H3.74878C3.00287 15.5922 2.39878 14.9881 2.39878 14.2422V3.74219ZM9.89877 3.74219C9.89877 2.99628 10.5029 2.39219 11.2488 2.39219H14.2488C14.9947 2.39219 15.5988 2.99628 15.5988 3.74219V6.74219C15.5988 7.48809 14.9947 8.09219 14.2488 8.09219H11.2488C10.5029 8.09219 9.89877 7.48809 9.89877 6.74219V3.74219ZM9.89877 11.2422C9.89877 10.4963 10.5029 9.89219 11.2488 9.89219H14.2488C14.9947 9.89219 15.5988 10.4963 15.5988 11.2422V14.2422C15.5988 14.9881 14.9947 15.5922 14.2488 15.5922H11.2488C10.5029 15.5922 9.89877 14.9881 9.89877 14.2422V11.2422Z" fill="black" stroke="white" stroke-width="0.3"/>
</svg>
