<svg width="24" height="24" viewBox="0 0 24 24" fill="currentColor" xmlns="http://www.w3.org/2000/svg">
<path d="M6.81042 2.92969C4.68542 2.92969 2.99841 4.73369 2.99841 6.92969V16.9297C2.99841 19.1257 4.68542 20.9297 6.81042 20.9297H17.1854C19.3114 20.9297 20.9984 19.1257 20.9984 16.9297V6.92969C20.9984 4.73369 19.3114 2.92969 17.1854 2.92969H6.81042ZM6.81042 4.92969H17.1854C18.1794 4.92969 18.9984 5.81169 18.9984 6.92969H4.99841C4.99841 5.81169 5.81742 4.92969 6.81042 4.92969ZM4.99841 8.92969H6.99841V18.9297H6.81042C5.81742 18.9297 4.99841 18.0477 4.99841 16.9297V8.92969ZM8.99841 8.92969H18.9984V16.9297C18.9984 18.0477 18.1794 18.9297 17.1854 18.9297H8.99841V8.92969ZM11.9984 10.9297C11.4464 10.9297 10.9984 11.3777 10.9984 11.9297C10.9984 12.4817 11.4464 12.9297 11.9984 12.9297H15.9984C16.5504 12.9297 16.9984 12.4817 16.9984 11.9297C16.9984 11.3777 16.5504 10.9297 15.9984 10.9297H11.9984ZM11.9984 14.9297C11.4464 14.9297 10.9984 15.3777 10.9984 15.9297C10.9984 16.4817 11.4464 16.9297 11.9984 16.9297H15.9984C16.5504 16.9297 16.9984 16.4817 16.9984 15.9297C16.9984 15.3777 16.5504 14.9297 15.9984 14.9297H11.9984Z" fill="white"/>
</svg>
