<svg width="28" height="28" viewBox="0 0 28 28" fill="none" xmlns="http://www.w3.org/2000/svg">
<path d="M20.3132 20.7153L20.4318 20.9715L20.6342 20.7747C22.415 19.0427 23.5321 16.6258 23.5321 13.944C23.5321 8.67921 19.2635 4.41067 13.9988 4.41067C8.73397 4.41067 4.46543 8.67921 4.46543 13.944C4.46543 16.6266 5.59008 19.0281 7.36912 20.7595L7.57158 20.9565L7.69015 20.7001C8.52054 18.9041 10.2949 17.644 12.3211 17.644H12.3236H12.3261H12.3287H12.3313H12.334H12.3367H12.3395H12.3423H12.3452H12.3481H12.351H12.354H12.3571H12.3602H12.3633H12.3665H12.3697H12.373H12.3763H12.3797H12.3831H12.3865H12.39H12.3936H12.3971H12.4008H12.4044H12.4081H12.4119H12.4157H12.4195H12.4234H12.4273H12.4313H12.4353H12.4393H12.4434H12.4475H12.4517H12.4559H12.4602H12.4645H12.4688H12.4732H12.4776H12.482H12.4865H12.491H12.4956H12.5002H12.5048H12.5095H12.5142H12.519H12.5238H12.5286H12.5335H12.5384H12.5434H12.5483H12.5534H12.5584H12.5635H12.5686H12.5738H12.579H12.5842H12.5895H12.5948H12.6002H12.6055H12.6109H12.6164H12.6219H12.6274H12.6329H12.6385H12.6441H12.6498H12.6555H12.6612H12.6669H12.6727H12.6785H12.6844H12.6902H12.6961H12.7021H12.7081H12.7141H12.7201H12.7262H12.7322H12.7384H12.7445H12.7507H12.7569H12.7632H12.7695H12.7758H12.7821H12.7885H12.7949H12.8013H12.8077H12.8142H12.8207H12.8272H12.8338H12.8404H12.847H12.8536H12.8603H12.867H12.8737H12.8805H12.8873H12.8941H12.9009H12.9078H12.9146H12.9215H12.9285H12.9354H12.9424H12.9494H12.9564H12.9635H12.9706H12.9777H12.9848H12.9919H12.9991H13.0063H13.0135H13.0208H13.028H13.0353H13.0426H13.0499H13.0573H13.0647H13.072H13.0795H13.0869H13.0943H13.1018H13.1093H13.1168H13.1244H13.1319H13.1395H13.1471H13.1547H13.1623H13.17H13.1777H13.1854H13.1931H13.2008H13.2085H13.2163H13.2241H13.2319H13.2397H13.2475H13.2554H13.2632H13.2711H13.279H13.2869H13.2949H13.3028H13.3108H13.3188H13.3267H13.3348H13.3428H13.3508H13.3589H13.3669H13.375H13.3831H13.3912H13.3993H13.4075H13.4156H13.4238H13.4319H13.4401H13.4483H13.4565H13.4647H13.473H13.4812H13.4895H13.4977H13.506H13.5143H13.5226H13.5309H13.5392H13.5476H13.5559H13.5643H13.5726H13.581H13.5894H13.5978H13.6061H13.6146H13.623H13.6314H13.6398H13.6483H13.6567H13.6652H13.6736H13.6821H13.6906H13.699H13.7075H13.716H13.7245H13.733H13.7415H13.75H13.7586H13.7671H13.7756H13.7842H13.7927H13.8013H13.8098H13.8184H13.8269H13.8355H13.844H13.8526H13.8612H13.8698H13.8783H13.8869H13.8955H13.9041H13.9127H13.9213H13.9299H13.9385H13.947H13.9556H13.9642H13.9728H13.9814H13.99H13.9986H14.0072H14.0158H14.0244H14.033H14.0416H14.0502H14.0588H14.0674H14.076H14.0846H14.0932H14.1017H14.1103H14.1189H14.1275H14.1361H14.1446H14.1532H14.1618H14.1703H14.1789H14.1874H14.196H14.2045H14.2131H14.2216H14.2302H14.2387H14.2472H14.2557H14.2642H14.2727H14.2812H14.2897H14.2982H14.3067H14.3152H14.3236H14.3321H14.3405H14.349H14.3574H14.3658H14.3743H14.3827H14.3911H14.3995H14.4079H14.4162H14.4246H14.433H14.4413H14.4496H14.458H14.4663H14.4746H14.4829H14.4912H14.4995H14.5077H14.516H14.5242H14.5325H14.5407H14.5489H14.5571H14.5653H14.5734H14.5816H14.5897H14.5979H14.606H14.6141H14.6222H14.6303H14.6383H14.6464H14.6544H14.6624H14.6704H14.6784H14.6864H14.6943H14.7023H14.7102H14.7181H14.726H14.7339H14.7418H14.7496H14.7574H14.7653H14.7731H14.7808H14.7886H14.7963H14.8041H14.8118H14.8194H14.8271H14.8348H14.8424H14.85H14.8576H14.8652H14.8727H14.8803H14.8878H14.8953H14.9027H14.9102H14.9176H14.925H14.9324H14.9398H14.9471H14.9545H14.9618H14.9691H14.9763H14.9835H14.9908H14.9979H15.0051H15.0123H15.0194H15.0265H15.0336H15.0406H15.0476H15.0546H15.0616H15.0686H15.0755H15.0824H15.0893H15.0961H15.1029H15.1097H15.1165H15.1232H15.13H15.1367H15.1433H15.15H15.1566H15.1632H15.1697H15.1763H15.1828H15.1892H15.1957H15.2021H15.2085H15.2148H15.2212H15.2275H15.2337H15.24H15.2462H15.2524H15.2585H15.2647H15.2707H15.2768H15.2828H15.2888H15.2948H15.3007H15.3066H15.3125H15.3183H15.3242H15.3299H15.3357H15.3414H15.3471H15.3527H15.3583H15.3639H15.3694H15.3749H15.3804H15.3859H15.3913H15.3966H15.402H15.4073H15.4125H15.4178H15.423H15.4281H15.4332H15.4383H15.4434H15.4484H15.4534H15.4583H15.4632H15.4681H15.4729H15.4777H15.4825H15.4872H15.4919H15.4965H15.5011H15.5057H15.5102H15.5147H15.5191H15.5235H15.5279H15.5322H15.5365H15.5407H15.5449H15.5491H15.5532H15.5573H15.5613H15.5653H15.5693H15.5732H15.5771H15.5809H15.5847H15.5884H15.5921H15.5958H15.5994H15.603H15.6065H15.61H15.6134H15.6168H15.6202H15.6235H15.6268H15.63H15.6332H15.6363H15.6394H15.6424H15.6454H15.6484H15.6513H15.6541H15.6569H15.6597H15.6624H15.6651H15.6677H15.6703H15.6728H15.6753C17.7042 17.644 19.4825 18.9197 20.3132 20.7153ZM18.6703 22.2374L18.8063 22.1571L18.7597 22.0062C18.3244 20.5959 17.0767 19.5773 15.6753 19.5773H15.6728H15.6703H15.6677H15.6651H15.6624H15.6597H15.6569H15.6541H15.6513H15.6484H15.6454H15.6424H15.6394H15.6363H15.6332H15.63H15.6268H15.6235H15.6202H15.6168H15.6134H15.61H15.6065H15.603H15.5994H15.5958H15.5921H15.5884H15.5847H15.5809H15.5771H15.5732H15.5693H15.5653H15.5613H15.5573H15.5532H15.5491H15.5449H15.5407H15.5365H15.5322H15.5279H15.5235H15.5191H15.5147H15.5102H15.5057H15.5011H15.4965H15.4919H15.4872H15.4825H15.4777H15.4729H15.4681H15.4632H15.4583H15.4534H15.4484H15.4434H15.4383H15.4332H15.4281H15.423H15.4178H15.4125H15.4073H15.402H15.3966H15.3913H15.3859H15.3804H15.3749H15.3694H15.3639H15.3583H15.3527H15.3471H15.3414H15.3357H15.3299H15.3242H15.3183H15.3125H15.3066H15.3007H15.2948H15.2888H15.2828H15.2768H15.2707H15.2647H15.2585H15.2524H15.2462H15.24H15.2337H15.2275H15.2212H15.2148H15.2085H15.2021H15.1957H15.1892H15.1828H15.1763H15.1697H15.1632H15.1566H15.15H15.1433H15.1367H15.13H15.1232H15.1165H15.1097H15.1029H15.0961H15.0893H15.0824H15.0755H15.0686H15.0616H15.0546H15.0476H15.0406H15.0336H15.0265H15.0194H15.0123H15.0051H14.9979H14.9908H14.9835H14.9763H14.9691H14.9618H14.9545H14.9471H14.9398H14.9324H14.925H14.9176H14.9102H14.9027H14.8953H14.8878H14.8803H14.8727H14.8652H14.8576H14.85H14.8424H14.8348H14.8271H14.8194H14.8118H14.8041H14.7963H14.7886H14.7808H14.7731H14.7653H14.7574H14.7496H14.7418H14.7339H14.726H14.7181H14.7102H14.7023H14.6943H14.6864H14.6784H14.6704H14.6624H14.6544H14.6464H14.6383H14.6303H14.6222H14.6141H14.606H14.5979H14.5897H14.5816H14.5734H14.5653H14.5571H14.5489H14.5407H14.5325H14.5242H14.516H14.5077H14.4995H14.4912H14.4829H14.4746H14.4663H14.458H14.4496H14.4413H14.433H14.4246H14.4162H14.4079H14.3995H14.3911H14.3827H14.3743H14.3658H14.3574H14.349H14.3405H14.3321H14.3236H14.3152H14.3067H14.2982H14.2897H14.2812H14.2727H14.2642H14.2557H14.2472H14.2387H14.2302H14.2216H14.2131H14.2045H14.196H14.1874H14.1789H14.1703H14.1618H14.1532H14.1446H14.1361H14.1275H14.1189H14.1103H14.1017H14.0932H14.0846H14.076H14.0674H14.0588H14.0502H14.0416H14.033H14.0244H14.0158H14.0072H13.9986H13.99H13.9814H13.9728H13.9642H13.9556H13.947H13.9385H13.9299H13.9213H13.9127H13.9041H13.8955H13.8869H13.8783H13.8698H13.8612H13.8526H13.844H13.8355H13.8269H13.8184H13.8098H13.8013H13.7927H13.7842H13.7756H13.7671H13.7586H13.75H13.7415H13.733H13.7245H13.716H13.7075H13.699H13.6906H13.6821H13.6736H13.6652H13.6567H13.6483H13.6398H13.6314H13.623H13.6146H13.6061H13.5978H13.5894H13.581H13.5726H13.5643H13.5559H13.5476H13.5392H13.5309H13.5226H13.5143H13.506H13.4977H13.4895H13.4812H13.473H13.4647H13.4565H13.4483H13.4401H13.4319H13.4238H13.4156H13.4075H13.3993H13.3912H13.3831H13.375H13.3669H13.3589H13.3508H13.3428H13.3348H13.3267H13.3188H13.3108H13.3028H13.2949H13.2869H13.279H13.2711H13.2632H13.2554H13.2475H13.2397H13.2319H13.2241H13.2163H13.2085H13.2008H13.1931H13.1854H13.1777H13.17H13.1623H13.1547H13.1471H13.1395H13.1319H13.1244H13.1168H13.1093H13.1018H13.0943H13.0869H13.0795H13.072H13.0647H13.0573H13.0499H13.0426H13.0353H13.028H13.0208H13.0135H13.0063H12.9991H12.9919H12.9848H12.9777H12.9706H12.9635H12.9564H12.9494H12.9424H12.9354H12.9285H12.9215H12.9146H12.9078H12.9009H12.8941H12.8873H12.8805H12.8737H12.867H12.8603H12.8536H12.847H12.8404H12.8338H12.8272H12.8207H12.8142H12.8077H12.8013H12.7949H12.7885H12.7821H12.7758H12.7695H12.7632H12.7569H12.7507H12.7445H12.7384H12.7322H12.7262H12.7201H12.7141H12.7081H12.7021H12.6961H12.6902H12.6844H12.6785H12.6727H12.6669H12.6612H12.6555H12.6498H12.6441H12.6385H12.6329H12.6274H12.6219H12.6164H12.6109H12.6055H12.6002H12.5948H12.5895H12.5842H12.579H12.5738H12.5686H12.5635H12.5584H12.5534H12.5483H12.5434H12.5384H12.5335H12.5286H12.5238H12.519H12.5142H12.5095H12.5048H12.5002H12.4956H12.491H12.4865H12.482H12.4776H12.4732H12.4688H12.4645H12.4602H12.4559H12.4517H12.4475H12.4434H12.4393H12.4353H12.4313H12.4273H12.4234H12.4195H12.4157H12.4119H12.4081H12.4044H12.4008H12.3971H12.3936H12.39H12.3865H12.3831H12.3797H12.3763H12.373H12.3697H12.3665H12.3633H12.3602H12.3571H12.354H12.351H12.3481H12.3452H12.3423H12.3395H12.3367H12.334H12.3313H12.3287H12.3261H12.3236H12.3211C10.9289 19.5773 9.68238 20.6173 9.25154 22.0374L9.20452 22.1924L9.34638 22.2706C11.091 23.2323 12.903 23.4773 13.9988 23.4773C15.0637 23.4773 16.9634 23.245 18.6703 22.2374ZM2.5321 13.9447C2.55389 7.61049 7.66635 2.47734 13.9988 2.47734C20.3315 2.47734 25.4539 7.61071 25.4654 13.9444C25.4769 20.2237 20.3247 25.4594 13.9992 25.4468C7.67149 25.4342 2.51032 20.2677 2.5321 13.9447ZM9.5321 11.6107C9.5321 9.14396 11.5321 7.14401 13.9988 7.14401C16.4655 7.14401 18.4654 9.14396 18.4654 11.6107C18.4654 14.0774 16.4655 16.0773 13.9988 16.0773C11.5321 16.0773 9.5321 14.0774 9.5321 11.6107ZM16.5321 11.6107C16.5321 10.211 15.3984 9.07734 13.9988 9.07734C12.5991 9.07734 11.4654 10.211 11.4654 11.6107C11.4654 13.0103 12.5991 14.144 13.9988 14.144C15.3984 14.144 16.5321 13.0103 16.5321 11.6107Z" fill="white" stroke="white" stroke-width="0.4"/>
</svg>
