<svg width="24" height="24" viewBox="0 0 24 24" fill="none" xmlns="http://www.w3.org/2000/svg">
<path d="M9.51416 2.92969C7.58116 2.92969 6.01416 4.49669 6.01416 6.42969V17.4297C6.01416 19.3627 7.58116 20.9297 9.51416 20.9297H14.5142C16.4472 20.9297 18.0142 19.3627 18.0142 17.4297V6.42969C18.0142 4.49669 16.4472 2.92969 14.5142 2.92969H9.51416ZM9.51416 4.92969H14.5142C15.3422 4.92969 16.0142 5.60129 16.0142 6.42969V17.4297C16.0142 18.2581 15.3422 18.9297 14.5142 18.9297H9.51416C8.68616 18.9297 8.01416 18.2581 8.01416 17.4297V6.42969C8.01416 5.60129 8.68616 4.92969 9.51416 4.92969ZM3.85815 7.99219C3.33715 7.80909 2.76016 8.09619 2.57616 8.61719C2.20516 9.67369 2.01416 10.7879 2.01416 11.9297C2.01416 13.0806 2.20016 14.2096 2.57616 15.2735C2.76116 15.794 3.33715 16.0516 3.85815 15.8672C4.37815 15.6828 4.66715 15.1378 4.48315 14.6172C4.18215 13.7671 4.01416 12.8523 4.01416 11.9297C4.01416 11.0144 4.15516 10.1177 4.45216 9.27349C4.63516 8.75239 4.37915 8.17529 3.85815 7.99219ZM20.2021 8.05469C19.6801 8.23529 19.3962 8.78279 19.5762 9.30469C19.8652 10.1385 20.0142 11.0273 20.0142 11.9297C20.0142 12.857 19.8492 13.7633 19.5452 14.6172C19.3602 15.1375 19.6502 15.7131 20.1702 15.8985C20.6912 16.0838 21.2661 15.7937 21.4521 15.2735C21.8321 14.2048 22.0142 13.0865 22.0142 11.9297C22.0142 10.804 21.8121 9.69189 21.4521 8.64849C21.2711 8.12649 20.7231 7.87409 20.2021 8.05469ZM12.0142 15.9297C11.4622 15.9297 11.0142 16.3774 11.0142 16.9297C11.0142 17.482 11.4622 17.9297 12.0142 17.9297C12.5662 17.9297 13.0142 17.482 13.0142 16.9297C13.0142 16.3774 12.5662 15.9297 12.0142 15.9297Z" fill="black" stroke="white" stroke-width="0.4" stroke-linecap="round" stroke-linejoin="round"/>
</svg>
