<svg width="16" height="20" viewBox="0 0 16 20" fill="none" xmlns="http://www.w3.org/2000/svg">
<path d="M5.29658 9.85859L5.15516 10L5.29658 10.1414L6.57739 11.4223C6.88947 11.7351 6.88953 12.2646 6.57757 12.5776C6.26461 12.8895 5.73512 12.8895 5.42225 12.5774L3.42261 10.5778C3.42255 10.5777 3.4225 10.5777 3.42244 10.5776C3.1105 10.2647 3.11053 9.73524 3.42252 9.42235C3.42255 9.42232 3.42258 9.42229 3.42261 9.42226L5.42207 7.4228C5.42212 7.42274 5.42218 7.42268 5.42224 7.42263C5.57388 7.27186 5.7864 7.20001 6 7.20001C6.21354 7.20001 6.426 7.27182 6.57764 7.4225C6.88953 7.73547 6.88945 8.26491 6.57739 8.57777L5.29658 9.85859ZM10.7034 10.1414L10.8448 10L10.7034 9.85859L9.42261 8.57777C9.11057 8.26493 9.11047 7.73553 9.42231 7.42255C9.57395 7.27184 9.78643 7.20001 10 7.20001C10.2136 7.20001 10.4262 7.27189 10.5778 7.42271C10.5779 7.42274 10.5779 7.42277 10.5779 7.4228L12.5774 9.42226C12.8895 9.7352 12.8895 10.2648 12.5774 10.5778L10.5779 12.5772C10.5779 12.5773 10.5778 12.5773 10.5778 12.5774C10.4257 12.7285 10.219 12.8 10 12.8C9.78109 12.8 9.57436 12.7286 9.42236 12.5775C9.11047 12.2646 9.11055 11.7351 9.42261 11.4223L10.7034 10.1414ZM0.2 4.00001C0.2 1.90146 1.90146 0.2 4 0.2H12C14.0985 0.2 15.8 1.90146 15.8 4.00001V16C15.8 18.0986 14.0985 19.8 12 19.8H4C1.90146 19.8 0.2 18.0986 0.2 16V4.00001ZM12 1.8H4C2.78454 1.8 1.8 2.78455 1.8 4.00001V16C1.8 17.2155 2.78454 18.2 4 18.2H12C13.2155 18.2 14.2 17.2155 14.2 16V4.00001C14.2 2.78455 13.2155 1.8 12 1.8Z" fill="black" stroke="black" stroke-width="0.4"/>
</svg>
