<svg width="27" height="27" viewBox="0 0 27 27" fill="none" xmlns="http://www.w3.org/2000/svg">
<path fill-rule="evenodd" clip-rule="evenodd" d="M10.231 10.7357C10.1944 10.4107 10.0421 10.1098 9.80189 9.88794C9.56168 9.66606 9.24962 9.53806 8.9228 9.52734H8.91233C8.75122 9.52734 8.5901 9.52734 8.42899 9.52734C8.10229 9.53794 7.79036 9.66594 7.55037 9.88787C7.31039 10.1098 7.15845 10.4108 7.12239 10.7357C7.09902 10.9242 7.07566 11.1385 7.05472 11.3221C7.04966 11.3673 7.03112 11.4099 7.00153 11.4444C6.97193 11.4788 6.93264 11.5036 6.88877 11.5155C6.68849 11.5684 6.49112 11.6319 6.2975 11.7056C6.25546 11.7217 6.20953 11.7248 6.1657 11.7145C6.12187 11.7041 6.08217 11.6808 6.0518 11.6476L5.64902 11.2134C5.42835 10.9709 5.12759 10.8163 4.80201 10.7778C4.47644 10.7393 4.14791 10.8196 3.8768 11.0039L3.86875 11.0104C3.73583 11.1038 3.60533 11.1997 3.47644 11.298C3.2185 11.4985 3.04136 11.7852 2.97746 12.1056C2.91356 12.426 2.96716 12.7587 3.12844 13.0428C3.22027 13.2087 3.32499 13.3924 3.41844 13.5575C3.44069 13.5971 3.45059 13.6424 3.44686 13.6876C3.44313 13.7329 3.42593 13.7759 3.3975 13.8113C3.26683 13.9719 3.14449 14.1392 3.03097 14.3123C3.00635 14.35 2.97098 14.3793 2.92946 14.3965C2.88793 14.4138 2.84219 14.4181 2.79816 14.409L2.21896 14.293C1.89832 14.2271 1.56467 14.2789 1.27914 14.439C0.993606 14.5991 0.775306 14.8567 0.664242 15.1646V15.1743C0.611881 15.3274 0.561938 15.482 0.516022 15.6375C0.425318 15.9512 0.450628 16.2871 0.587314 16.5837C0.724001 16.8803 0.962924 17.1178 1.26036 17.2526C1.43194 17.3332 1.62527 17.4202 1.79686 17.4991C1.83829 17.5178 1.87313 17.5486 1.89684 17.5874C1.92055 17.6262 1.93202 17.6712 1.92977 17.7166C1.91912 17.9232 1.91912 18.1303 1.92977 18.3369C1.93205 18.3819 1.92075 18.4265 1.89733 18.465C1.87392 18.5035 1.83947 18.5341 1.79847 18.5528L1.26197 18.7993C0.963877 18.9344 0.724409 19.1723 0.587419 19.4695C0.450428 19.7667 0.425082 20.1033 0.516022 20.4176V20.4281C0.564355 20.5828 0.614302 20.7375 0.668274 20.8889C0.779444 21.1961 0.997457 21.4531 1.28248 21.6129C1.5675 21.7726 1.90048 21.8244 2.22057 21.7589C2.40666 21.7227 2.61449 21.6783 2.79897 21.6421C2.84359 21.633 2.88991 21.6376 2.93188 21.6553C2.97384 21.673 3.00949 21.7029 3.03419 21.7412C3.14674 21.915 3.26799 22.0831 3.3975 22.2447C3.42577 22.2798 3.44281 22.3227 3.4464 22.3676C3.44999 22.4126 3.43997 22.4576 3.41763 22.4968L3.12844 23.0115C2.9666 23.2961 2.91269 23.6294 2.97661 23.9504C3.04052 24.2715 3.21797 24.5587 3.47644 24.7596L3.4853 24.766C3.61499 24.8627 3.7463 24.9586 3.88002 25.0496C4.14839 25.2324 4.47336 25.3131 4.79608 25.2771C5.11881 25.241 5.41796 25.0906 5.63936 24.853C5.76905 24.7145 5.91163 24.5582 6.04213 24.4189C6.07282 24.3853 6.11294 24.3618 6.15722 24.3515C6.20149 24.3411 6.24786 24.3444 6.29024 24.3608C6.48116 24.435 6.67933 24.4994 6.87991 24.555C6.9227 24.5674 6.96084 24.5923 6.98952 24.6264C7.01819 24.6606 7.03611 24.7024 7.04102 24.7467L7.10869 25.3332C7.1453 25.6582 7.29774 25.9593 7.53813 26.1812C7.77851 26.403 8.09075 26.531 8.41771 26.5415H8.42819C8.5893 26.5415 8.75041 26.5415 8.91152 26.5415C9.23827 26.5311 9.5503 26.4031 9.79031 26.1812C10.0303 25.9592 10.1822 25.6581 10.2181 25.3332C10.2415 25.1455 10.2649 24.9304 10.2858 24.7467C10.2911 24.7015 10.3099 24.659 10.3396 24.6245C10.3693 24.5901 10.4086 24.5653 10.4525 24.5534C10.6528 24.5005 10.8501 24.4373 11.0438 24.3641C11.0853 24.3488 11.1304 24.3461 11.1734 24.3565C11.2165 24.3668 11.2554 24.3896 11.2855 24.4221L11.6883 24.8563C11.909 25.0986 12.2098 25.2531 12.5353 25.2916C12.8608 25.3301 13.1893 25.2499 13.4605 25.0657L13.4694 25.0593C13.6023 24.9658 13.7328 24.8708 13.8609 24.7717C14.1188 24.5712 14.2959 24.2845 14.3598 23.9641C14.4237 23.6437 14.3701 23.311 14.2089 23.0269C14.117 22.8609 14.0123 22.6764 13.9189 22.5121C13.8965 22.4726 13.8865 22.4273 13.8903 22.382C13.894 22.3367 13.9113 22.2937 13.9398 22.2583C14.0705 22.0978 14.1929 21.9305 14.3063 21.7573C14.331 21.7197 14.3663 21.6903 14.4078 21.6729C14.4493 21.6556 14.495 21.651 14.5391 21.6598L15.1175 21.7766C15.4381 21.8426 15.7716 21.7909 16.0572 21.6309C16.3427 21.471 16.561 21.2136 16.6722 20.9058V20.8953C16.7246 20.7423 16.7745 20.5876 16.8197 20.4322C16.9104 20.1184 16.8851 19.7825 16.7484 19.4859C16.6117 19.1893 16.3728 18.9519 16.0753 18.817C15.9037 18.7365 15.7104 18.6495 15.5388 18.5705C15.4974 18.5518 15.4626 18.521 15.4388 18.4823C15.4151 18.4435 15.4037 18.3984 15.4059 18.353C15.4167 18.1464 15.4167 17.9394 15.4059 17.7327C15.4036 17.6877 15.4149 17.6431 15.4383 17.6046C15.4618 17.5661 15.4962 17.5355 15.5372 17.5168L16.0737 17.2703C16.3717 17.1351 16.611 16.8972 16.7478 16.6C16.8846 16.3028 16.9099 15.9663 16.8189 15.652C16.819 15.6485 16.819 15.645 16.8189 15.6415C16.7705 15.4869 16.7206 15.333 16.6658 15.1807C16.5547 14.8737 16.3368 14.6168 16.0519 14.4571C15.7671 14.2974 15.4343 14.2454 15.1143 14.3107C14.9282 14.3462 14.7204 14.3913 14.5359 14.4275C14.4914 14.4367 14.4451 14.4322 14.4032 14.4147C14.3612 14.3971 14.3255 14.3674 14.3007 14.3293C14.1883 14.1553 14.0671 13.9872 13.9374 13.8258C13.9091 13.7906 13.8921 13.7478 13.8885 13.7028C13.8849 13.6579 13.8949 13.6129 13.9172 13.5737L14.2064 13.0597C14.3681 12.7751 14.4219 12.4419 14.358 12.1209C14.2941 11.7999 14.1168 11.5126 13.8584 11.3117L13.8504 11.3052C13.7207 11.2085 13.5894 11.1135 13.4557 11.0217C13.1854 10.8382 12.8581 10.7582 12.5336 10.7964C12.2092 10.8346 11.9094 10.9883 11.6891 11.2295C11.5594 11.368 11.4168 11.5251 11.2863 11.6645C11.2556 11.6981 11.2156 11.7217 11.1713 11.7321C11.1271 11.7426 11.0807 11.7395 11.0382 11.7233C10.8451 11.6485 10.6483 11.5837 10.4485 11.5291C10.4058 11.5166 10.3677 11.4917 10.339 11.4576C10.3104 11.4235 10.2924 11.3817 10.2874 11.3374L10.231 10.7357ZM9.10325 10.8621L9.17252 11.4534C9.20395 11.7236 9.31572 11.9781 9.49337 12.184C9.67102 12.39 9.90638 12.5379 10.169 12.6086C10.3314 12.6542 10.4913 12.708 10.6483 12.7697C10.9036 12.8674 11.1824 12.8859 11.4484 12.8228C11.7143 12.7597 11.9551 12.618 12.1394 12.4161L12.5422 11.9819C12.5785 11.9421 12.628 11.9167 12.6815 11.9103C12.7351 11.904 12.7891 11.9171 12.8338 11.9472C12.9514 12.0278 13.0674 12.1083 13.1818 12.1978C13.2238 12.2314 13.2524 12.2789 13.2625 12.3318C13.2725 12.3847 13.2633 12.4395 13.2365 12.4862L12.9441 13.0057C12.8108 13.2427 12.7516 13.5142 12.7742 13.7852C12.7967 14.0562 12.9 14.3141 13.0706 14.5258C13.1761 14.657 13.2748 14.7936 13.3662 14.935C13.5155 15.1641 13.7302 15.343 13.9825 15.4483C14.2348 15.5536 14.513 15.5805 14.7808 15.5255L15.3592 15.4087C15.412 15.3979 15.4669 15.4065 15.5139 15.4328C15.5609 15.4591 15.5969 15.5015 15.6154 15.5521C15.6637 15.6866 15.708 15.8228 15.7507 15.9589C15.7647 16.0109 15.7597 16.0662 15.7367 16.1149C15.7136 16.1636 15.6741 16.2025 15.625 16.2247L15.0837 16.4729C14.8365 16.5861 14.6289 16.771 14.4879 17.0035C14.3469 17.236 14.2789 17.5055 14.2926 17.777C14.2999 17.943 14.2999 18.113 14.2926 18.2821C14.2787 18.5551 14.3472 18.8259 14.4893 19.0594C14.6314 19.2928 14.8405 19.4781 15.0893 19.5912L15.6266 19.8377C15.6759 19.8598 15.7154 19.8989 15.7381 19.9479C15.7607 19.9969 15.7649 20.0525 15.7499 20.1043C15.7096 20.2412 15.6693 20.3774 15.6194 20.5135C15.6002 20.5638 15.5637 20.6057 15.5165 20.6315C15.4692 20.6573 15.4143 20.6655 15.3616 20.6545L14.7776 20.5369C14.511 20.4835 14.2345 20.5112 13.9838 20.6165C13.7331 20.7217 13.5197 20.8997 13.3711 21.1274C13.2789 21.2683 13.1794 21.4044 13.073 21.535C12.9005 21.7478 12.7963 22.0078 12.774 22.2809C12.7517 22.554 12.8124 22.8275 12.9482 23.0655L13.2382 23.5803C13.2649 23.6272 13.2738 23.6822 13.2633 23.7351C13.2528 23.7881 13.2235 23.8355 13.181 23.8687C13.0682 23.9557 12.9522 24.0402 12.8354 24.1224C12.7902 24.152 12.7359 24.1645 12.6823 24.1577C12.6288 24.1509 12.5793 24.1253 12.543 24.0853L12.1402 23.6471C11.9562 23.4468 11.7163 23.3064 11.4516 23.2441C11.1869 23.1817 10.9096 23.2004 10.6555 23.2975C10.4993 23.3555 10.339 23.4087 10.1722 23.4514C9.90841 23.5226 9.67214 23.6715 9.49413 23.8789C9.31613 24.0862 9.20463 24.3422 9.17413 24.6138L9.10647 25.201C9.10032 25.2546 9.07513 25.3041 9.0355 25.3406C8.99587 25.3772 8.94444 25.3982 8.89058 25.4C8.74719 25.4049 8.6038 25.4049 8.46121 25.4C8.40737 25.3975 8.3562 25.3758 8.31692 25.3389C8.27764 25.3019 8.25282 25.2522 8.24694 25.1986L8.17847 24.6073C8.14699 24.3373 8.0353 24.083 7.85782 23.877C7.68034 23.6711 7.44522 23.5231 7.1828 23.4522C7.01907 23.4067 6.85775 23.3529 6.69947 23.2911C6.44423 23.1934 6.16551 23.1749 5.89957 23.2378C5.63364 23.3007 5.3928 23.4422 5.20838 23.6439L4.8056 24.0789C4.76923 24.1187 4.71977 24.1441 4.66624 24.1504C4.61271 24.1568 4.55867 24.1437 4.51399 24.1135C4.39558 24.033 4.27958 23.9524 4.16519 23.8638C4.12335 23.8299 4.0949 23.7822 4.08487 23.7292C4.07485 23.6763 4.08389 23.6215 4.11041 23.5746L4.40282 23.0558C4.53614 22.8188 4.59527 22.5473 4.57258 22.2763C4.54989 22.0053 4.44642 21.7473 4.27555 21.5358C4.17022 21.4043 4.07181 21.2674 3.98072 21.1257C3.83041 20.8972 3.61476 20.7193 3.36187 20.6151C3.10898 20.511 2.83058 20.4854 2.56294 20.5417L1.98374 20.6585C1.93095 20.6693 1.87603 20.6607 1.82901 20.6344C1.78199 20.6081 1.74599 20.5658 1.72758 20.5151C1.68005 20.3798 1.63574 20.2445 1.59305 20.1083C1.57908 20.0563 1.58406 20.001 1.60707 19.9523C1.63009 19.9036 1.66966 19.8647 1.71872 19.8425L2.26005 19.5944C2.50719 19.481 2.71466 19.2961 2.85567 19.0636C2.99668 18.8312 3.06476 18.5617 3.05111 18.2902C3.04254 18.1219 3.04254 17.9534 3.05111 17.7851C3.06488 17.5121 2.99618 17.2412 2.85395 17.0078C2.71172 16.7743 2.50254 16.589 2.2536 16.4761L1.7171 16.2344C1.66788 16.2123 1.6283 16.1731 1.60565 16.1241C1.58301 16.0751 1.57882 16.0196 1.59385 15.9678C1.63333 15.8308 1.67441 15.6947 1.72355 15.5585C1.74285 15.5083 1.77932 15.4665 1.82651 15.4405C1.87369 15.4146 1.92854 15.4061 1.98133 15.4168L2.56535 15.5344C2.83189 15.5883 3.10847 15.5609 3.35925 15.4558C3.61003 15.3506 3.82346 15.1726 3.97186 14.9447C4.0643 14.8039 4.16378 14.6679 4.26991 14.5371C4.44242 14.3242 4.54663 14.0642 4.56891 13.7911C4.59119 13.518 4.5305 13.2446 4.39477 13.0065L4.1088 12.4862C4.08211 12.4392 4.0732 12.3843 4.0837 12.3313C4.0942 12.2784 4.12341 12.2309 4.16599 12.1978C4.27877 12.1108 4.39477 12.0262 4.51158 11.944C4.55682 11.9146 4.61103 11.9021 4.66458 11.9089C4.71812 11.9157 4.76753 11.9413 4.80399 11.9811L5.20677 12.4193C5.39086 12.6194 5.63075 12.7597 5.89542 12.822C6.16009 12.8843 6.43737 12.8658 6.69141 12.7689C6.84972 12.7092 7.01105 12.6579 7.17474 12.615C7.43849 12.544 7.67474 12.3952 7.85275 12.188C8.03076 11.9808 8.14228 11.7249 8.17282 11.4534L8.2413 10.8662C8.24727 10.8125 8.27238 10.7628 8.31202 10.7261C8.35167 10.6894 8.4032 10.6682 8.45719 10.6664C8.59977 10.6664 8.74316 10.6664 8.88655 10.6664C8.94032 10.6693 8.99131 10.6913 9.03041 10.7283C9.06951 10.7653 9.09418 10.8151 9.10002 10.8686L9.10325 10.8621Z" fill="black"/>
<path fill-rule="evenodd" clip-rule="evenodd" d="M8.81222 14.0625C8.02671 14.0625 7.25886 14.2954 6.60575 14.7318C5.95264 15.1683 5.44361 15.7885 5.14305 16.5143C4.84249 17.24 4.76389 18.0386 4.91719 18.809C5.07049 19.5794 5.44881 20.287 6.0043 20.8424C6.55979 21.3977 7.2675 21.7759 8.03793 21.9291C8.80836 22.0822 9.6069 22.0034 10.3326 21.7027C11.0582 21.402 11.6784 20.8929 12.1147 20.2397C12.551 19.5865 12.7838 18.8186 12.7836 18.0331C12.783 16.9801 12.3643 15.9704 11.6197 15.2259C10.875 14.4814 9.86522 14.0629 8.81222 14.0625ZM8.81222 15.1967C9.3732 15.1967 9.92158 15.3631 10.388 15.6747C10.8544 15.9864 11.218 16.4294 11.4327 16.9476C11.6473 17.4659 11.7035 18.0362 11.5941 18.5864C11.4846 19.1366 11.2145 19.642 10.8178 20.0387C10.4212 20.4353 9.91577 20.7055 9.36557 20.8149C8.81537 20.9244 8.24507 20.8682 7.72679 20.6535C7.20851 20.4389 6.76554 20.0753 6.45387 19.6089C6.14221 19.1424 5.97586 18.5941 5.97586 18.0331C5.97628 17.281 6.27525 16.5598 6.80708 16.0279C7.33891 15.4961 8.0601 15.1971 8.81222 15.1967Z" fill="black"/>
<path fill-rule="evenodd" clip-rule="evenodd" d="M18.1874 4.98828C17.4021 4.98828 16.6344 5.22115 15.9814 5.65745C15.3285 6.09374 14.8196 6.71386 14.519 7.43939C14.2185 8.16492 14.1399 8.96327 14.2931 9.73349C14.4463 10.5037 14.8245 11.2112 15.3798 11.7665C15.9351 12.3218 16.6426 12.6999 17.4128 12.8532C18.183 13.0064 18.9813 12.9277 19.7069 12.6272C20.4324 12.3267 21.0525 11.8178 21.4888 11.1648C21.9251 10.5118 22.158 9.74417 22.158 8.95887C22.1576 7.90593 21.7391 6.89625 20.9945 6.15171C20.25 5.40718 19.2403 4.98871 18.1874 4.98828ZM18.1874 6.1225C18.7484 6.12234 19.2969 6.28856 19.7634 6.60012C20.23 6.91169 20.5936 7.35462 20.8084 7.87288C21.0232 8.39114 21.0795 8.96147 20.9701 9.51172C20.8608 10.062 20.5907 10.5674 20.1941 10.9642C19.7975 11.3609 19.2921 11.6312 18.7418 11.7407C18.1916 11.8502 17.6213 11.7941 17.1029 11.5794C16.5846 11.3647 16.1416 11.0012 15.8299 10.5347C15.5182 10.0683 15.3518 9.51988 15.3518 8.95887C15.352 8.20682 15.6508 7.48563 16.1825 6.95378C16.7142 6.42193 17.4353 6.12293 18.1874 6.1225Z" fill="black"/>
<path fill-rule="evenodd" clip-rule="evenodd" d="M19.5256 17.032C19.7246 16.8198 19.85 16.5493 19.8833 16.2603C19.9066 16.0662 19.9308 15.8575 19.9517 15.6682C19.9568 15.6231 19.9753 15.5805 20.0049 15.546C20.0345 15.5115 20.0738 15.4867 20.1177 15.4749C20.318 15.4219 20.5153 15.3585 20.709 15.2848C20.751 15.2686 20.7969 15.2655 20.8407 15.2758C20.8846 15.2862 20.9243 15.3095 20.9546 15.3428L21.3574 15.777C21.5781 16.0194 21.8788 16.1741 22.2044 16.2126C22.53 16.251 22.8585 16.1707 23.1297 15.9864L23.1377 15.98C23.2706 15.8865 23.4011 15.7907 23.5292 15.6924C23.7872 15.4919 23.9643 15.2052 24.0282 14.8848C24.0921 14.5644 24.0385 14.2317 23.8772 13.9475C23.7854 13.7816 23.6806 13.5979 23.5872 13.4328C23.5649 13.3932 23.5551 13.3479 23.5588 13.3027C23.5625 13.2575 23.5797 13.2144 23.6081 13.179C23.7388 13.0184 23.8611 12.8512 23.9747 12.678C23.9993 12.6404 24.0347 12.611 24.0762 12.5938C24.1177 12.5766 24.1634 12.5722 24.2075 12.5813L24.7859 12.6973C25.1065 12.7631 25.4401 12.7111 25.7256 12.5511C26.0111 12.391 26.2294 12.1335 26.3406 11.8257V11.816C26.393 11.663 26.4429 11.5083 26.488 11.3529C26.5787 11.0391 26.5534 10.7032 26.4167 10.4066C26.28 10.11 26.0411 9.87257 25.7437 9.73771C25.5721 9.65716 25.3787 9.57016 25.2072 9.49121C25.1657 9.4725 25.1309 9.44175 25.1072 9.40295C25.0835 9.36416 25.072 9.31912 25.0743 9.27372C25.0849 9.06709 25.0849 8.86006 25.0743 8.65344C25.072 8.60844 25.0833 8.56379 25.1067 8.52529C25.1301 8.4868 25.1646 8.45622 25.2056 8.43755L25.7421 8.19105C26.0401 8.05599 26.2795 7.81803 26.4164 7.5208C26.5532 7.22356 26.5784 6.88696 26.4872 6.57269C26.4875 6.5692 26.4875 6.5657 26.4872 6.56222C26.4389 6.40755 26.3889 6.25288 26.335 6.10144C26.2238 5.7942 26.0058 5.53723 25.7207 5.37749C25.4357 5.21774 25.1027 5.1659 24.7827 5.23144C24.5966 5.26769 24.3887 5.31199 24.2043 5.34824C24.1596 5.3573 24.1133 5.35269 24.0714 5.33502C24.0294 5.31734 23.9937 5.28742 23.969 5.24916C23.8565 5.0753 23.7353 4.90726 23.6057 4.74569C23.5775 4.71053 23.5604 4.66769 23.5568 4.62272C23.5532 4.57775 23.5632 4.53274 23.5856 4.49355L23.8748 3.9788C24.0365 3.69422 24.0903 3.36095 24.0264 3.03996C23.9625 2.71896 23.7851 2.4317 23.5268 2.23074L23.5179 2.2243C23.3882 2.12763 23.2569 2.03177 23.1232 1.94074C22.8528 1.75738 22.5255 1.67754 22.201 1.71586C21.8766 1.75418 21.5768 1.90808 21.3566 2.14938C21.2269 2.28794 21.0843 2.44421 20.9538 2.58358C20.9231 2.61713 20.883 2.64062 20.8388 2.65097C20.7945 2.66132 20.7481 2.65804 20.7057 2.64158C20.5125 2.56707 20.3157 2.50227 20.1161 2.44744C20.0732 2.43507 20.035 2.41024 20.0063 2.37609C19.9776 2.34195 19.9598 2.30005 19.955 2.25571L19.8873 1.66927C19.8507 1.34419 19.6982 1.04316 19.4578 0.821268C19.2175 0.599377 18.9052 0.471465 18.5783 0.460938H18.5678C18.4067 0.460938 18.2456 0.460938 18.0845 0.460938C17.7577 0.47137 17.4457 0.599312 17.2057 0.821276C16.9657 1.04324 16.8137 1.34433 16.7778 1.66927C16.7545 1.85697 16.7303 2.07205 16.7094 2.25571C16.7042 2.30084 16.6856 2.34337 16.6561 2.37784C16.6265 2.4123 16.5873 2.4371 16.5434 2.44905C16.3432 2.50189 16.1458 2.56508 15.9522 2.63835C15.9106 2.65363 15.8655 2.65628 15.8225 2.64595C15.7795 2.63563 15.7405 2.61281 15.7105 2.58035L15.3077 2.14616C15.0869 1.90386 14.7862 1.74929 14.4607 1.71082C14.1351 1.67235 13.8067 1.75255 13.5355 1.93672L13.5266 1.94316C13.3937 2.0366 13.2632 2.13166 13.1351 2.23074C12.8772 2.43126 12.7 2.71794 12.6361 3.03834C12.5722 3.35875 12.6258 3.69145 12.7871 3.97558C12.8789 4.14152 12.9837 4.32599 13.0771 4.49033C13.0995 4.52984 13.1094 4.57517 13.1057 4.62043C13.102 4.66568 13.0847 4.70876 13.0562 4.74408C12.9254 4.90466 12.8031 5.0719 12.6896 5.24513C12.665 5.28274 12.6296 5.31211 12.5882 5.32948C12.5467 5.34685 12.501 5.35142 12.4569 5.3426L11.8776 5.2258C11.5572 5.16006 11.2238 5.21188 10.9385 5.37179C10.6532 5.53169 10.4349 5.78899 10.3237 6.0966V6.10708C10.2714 6.26013 10.2214 6.4148 10.1755 6.57027C10.0846 6.884 10.1099 7.21997 10.2466 7.51661C10.3833 7.81325 10.6223 8.05069 10.9198 8.18541C11.0914 8.26596 11.2848 8.35296 11.4564 8.43191C11.4977 8.45071 11.5325 8.48149 11.5562 8.52026C11.5799 8.55903 11.5914 8.60402 11.5892 8.64941C11.5784 8.85603 11.5784 9.06307 11.5892 9.26969C11.5926 9.34406 11.6106 9.41703 11.6422 9.48444C11.6738 9.55185 11.7184 9.61238 11.7734 9.66257C11.8283 9.71277 11.8927 9.75164 11.9627 9.77697C12.0327 9.8023 12.107 9.8136 12.1813 9.81021C12.2557 9.80683 12.3287 9.78883 12.3961 9.75724C12.4635 9.72566 12.524 9.6811 12.5742 9.62612C12.6244 9.57114 12.6633 9.50681 12.6886 9.43681C12.714 9.36681 12.7253 9.2925 12.7219 9.21813C12.7146 9.04896 12.7146 8.8798 12.7219 8.71063C12.7359 8.43766 12.6674 8.16678 12.5253 7.93329C12.3832 7.6998 12.1741 7.51452 11.9252 7.4016L11.3887 7.1551C11.3394 7.13297 11.2999 7.09381 11.2772 7.04481C11.2546 6.99582 11.2504 6.9403 11.2654 6.88846C11.3049 6.75152 11.346 6.61538 11.3951 6.47924C11.4144 6.42902 11.4509 6.38729 11.4981 6.36147C11.5453 6.33566 11.6002 6.32744 11.6529 6.33827L12.2369 6.45588C12.5035 6.50949 12.7801 6.48187 13.0308 6.3766C13.2816 6.27134 13.495 6.09326 13.6434 5.86541C13.7358 5.72458 13.8353 5.58853 13.9415 5.4578C14.1139 5.24487 14.218 4.98487 14.2403 4.71181C14.2626 4.43874 14.202 4.1653 14.0663 3.92724L13.7764 3.41249C13.7497 3.36557 13.7408 3.3106 13.7513 3.25765C13.7618 3.20469 13.791 3.15729 13.8335 3.1241C13.9463 3.0371 14.0623 2.95252 14.1791 2.87035C14.2243 2.84075 14.2786 2.82823 14.3322 2.83502C14.3858 2.84181 14.4352 2.86747 14.4715 2.90741L14.8743 3.34563C15.0584 3.54574 15.2983 3.68603 15.563 3.74836C15.8276 3.81068 16.1049 3.79218 16.359 3.69524C16.5173 3.63574 16.6787 3.58439 16.8423 3.54138C17.1061 3.47017 17.3424 3.32122 17.5204 3.1139C17.6984 2.90659 17.8099 2.65051 17.8404 2.37896L17.908 1.79171C17.9142 1.73818 17.9394 1.68863 17.979 1.65211C18.0186 1.61558 18.0701 1.59452 18.1239 1.59274C18.2673 1.58791 18.4099 1.58791 18.5533 1.59274C18.6072 1.59514 18.6584 1.61677 18.6977 1.65372C18.7371 1.69067 18.7618 1.74048 18.7676 1.79413L18.8368 2.38541C18.8682 2.65546 18.9799 2.90989 19.1574 3.11582C19.3349 3.32175 19.57 3.46971 19.8325 3.54058C19.9962 3.58605 20.1576 3.63982 20.3158 3.70169C20.5711 3.79933 20.8498 3.81789 21.1157 3.75496C21.3817 3.69203 21.6225 3.55053 21.8069 3.34885L22.2097 2.91385C22.2461 2.87407 22.2955 2.84868 22.3491 2.84232C22.4026 2.83596 22.4566 2.84906 22.5013 2.87922C22.6189 2.95977 22.7349 3.04033 22.8493 3.12974C22.8914 3.1635 22.9201 3.21119 22.9301 3.26422C22.9402 3.31725 22.9309 3.37212 22.9041 3.41894L22.6117 3.93772C22.4783 4.17466 22.419 4.44618 22.4415 4.71717C22.4641 4.98816 22.5674 5.24616 22.7382 5.4578C22.8437 5.58932 22.9423 5.72617 23.0338 5.86783C23.1831 6.09682 23.3979 6.2756 23.6501 6.38091C23.9024 6.48622 24.1805 6.51318 24.4483 6.4583L25.0267 6.34149C25.0795 6.33072 25.1344 6.33927 25.1814 6.36558C25.2285 6.3919 25.2645 6.43424 25.2829 6.48488C25.3312 6.62021 25.3755 6.75555 25.4182 6.89169C25.4322 6.9437 25.4272 6.99899 25.4042 7.04768C25.3812 7.09637 25.3416 7.1353 25.2926 7.15752L24.7512 7.40563C24.5041 7.51901 24.2966 7.70388 24.1556 7.93636C24.0146 8.16884 23.9465 8.43826 23.9602 8.70983C23.9687 8.87808 23.9687 9.04666 23.9602 9.21491C23.9463 9.48784 24.0149 9.75863 24.157 9.99207C24.2991 10.2255 24.5081 10.4108 24.7569 10.5239L25.2942 10.7656C25.3434 10.7877 25.383 10.8269 25.4056 10.8759C25.4283 10.9249 25.4325 10.9804 25.4174 11.0322C25.3771 11.1692 25.3369 11.3053 25.2869 11.4415C25.2677 11.4918 25.2313 11.5337 25.1841 11.5597C25.1369 11.5857 25.082 11.594 25.0292 11.5832L24.4451 11.4656C24.1786 11.4119 23.9021 11.4394 23.6513 11.5446C23.4006 11.6497 23.1872 11.8276 23.0386 12.0553C22.9464 12.196 22.8469 12.3317 22.7406 12.4621C22.568 12.6749 22.4637 12.9349 22.4414 13.2081C22.4191 13.4812 22.4799 13.7547 22.6157 13.9927L22.9057 14.5074C22.9324 14.5543 22.9413 14.6093 22.9308 14.6623C22.9203 14.7152 22.8911 14.7626 22.8485 14.7958C22.7357 14.8828 22.6197 14.9674 22.5029 15.0495C22.4577 15.079 22.4035 15.0914 22.3499 15.0846C22.2964 15.0779 22.247 15.0523 22.2105 15.0125L21.8077 14.5743C21.6238 14.374 21.3839 14.2336 21.1192 14.1712C20.8544 14.1089 20.5771 14.1275 20.3231 14.2247C20.1647 14.2842 20.0034 14.3356 19.8398 14.3785C19.576 14.4496 19.3398 14.5984 19.1618 14.8056C18.9838 15.0127 18.8722 15.2687 18.8417 15.5401L18.7732 16.1274C18.7676 16.1752 18.747 16.2201 18.7144 16.2555C18.6635 16.3098 18.6237 16.3737 18.5975 16.4434C18.5712 16.5132 18.559 16.5874 18.5614 16.6619C18.5638 16.7363 18.5809 16.8096 18.6117 16.8774C18.6424 16.9453 18.6862 17.0065 18.7406 17.0574C18.7949 17.1083 18.8588 17.1481 18.9286 17.1743C18.9983 17.2006 19.0725 17.2128 19.147 17.2104C19.2214 17.208 19.2947 17.1909 19.3626 17.1601C19.4304 17.1294 19.4916 17.0856 19.5425 17.0312L19.5256 17.032Z" fill="black"/>
</svg>
