<svg width="24" height="24" viewBox="0 0 24 24" fill="none" xmlns="http://www.w3.org/2000/svg">
<path d="M9.85757 3.71925L9.85832 3.71872C10.4134 3.33059 11.1448 3.13557 11.8703 3.12982C12.5933 3.12408 13.2919 3.3096 13.8499 3.68919L13.8499 3.68919L13.8514 3.69021L21.4449 8.75401C21.445 8.75403 21.445 8.75406 21.445 8.75408C21.9177 9.07063 21.9176 9.79183 21.4446 10.1098L21.4443 10.1101L18.9443 11.7981L18.6965 11.9653L18.9457 12.1305L21.4453 13.7873C21.4454 13.7873 21.4455 13.7874 21.4456 13.7874C21.919 14.103 21.9194 14.7936 21.4449 15.1117L13.8835 20.1749C13.8833 20.175 13.8832 20.1751 13.883 20.1753C12.7448 20.926 10.9867 20.9128 9.85689 20.1449C9.85665 20.1447 9.85641 20.1446 9.85618 20.1444L2.54507 15.0814L2.54504 15.0814C2.08467 14.7626 2.08467 14.1027 2.54474 13.7854L2.54507 13.7852L4.98257 12.0972L5.22 11.9328L4.98257 11.7684L2.5451 10.0804C2.08346 9.76057 2.08372 9.10071 2.54458 8.78357L2.54507 8.78323L9.85757 3.71925ZM19.2931 9.59757L19.5389 9.43159L19.2929 9.26592L12.9813 5.01553C12.9812 5.01545 12.9811 5.01536 12.9809 5.01528C12.6776 4.80879 12.2504 4.72765 11.867 4.73083C11.4742 4.73409 11.0839 4.83893 10.786 5.04741C10.7857 5.04762 10.7854 5.04784 10.7851 5.04805L4.63062 9.26685L4.3912 9.43097L4.62984 9.59623L7.0669 11.2839C7.06699 11.284 7.06708 11.2841 7.06718 11.2841C7.52902 11.6058 10.3023 13.5331 10.7547 13.8471L10.7562 13.8482C11.056 14.0521 11.4672 14.1448 11.8627 14.1449C12.2587 14.1451 12.6725 14.0525 12.9791 13.8496L12.9803 13.8488L16.7928 11.2858L16.7931 11.2856L19.2931 9.59757ZM6.5874 12.9208H6.52346L6.47138 12.9579L4.62768 14.2709L4.39597 14.4359L4.62967 14.5981L10.7547 18.8491L10.7547 18.8491L10.7562 18.8502C11.0561 19.0541 11.4668 19.1468 11.8622 19.1469C12.2581 19.1471 12.6717 19.0545 12.9789 18.8517L12.9799 18.8511L19.2924 14.6311L19.5394 14.4659L19.2934 14.2992L17.3559 12.9862L17.2441 12.9105L17.132 12.9859L13.8834 15.173C13.8832 15.1731 13.883 15.1733 13.8827 15.1734C12.7448 15.925 10.9881 15.9128 9.85692 15.1439C9.69857 15.0339 9.30495 14.7577 8.83262 14.4263C8.72011 14.3474 8.60312 14.2653 8.48379 14.1816C7.8631 13.7461 7.17937 13.2669 6.73283 12.9566L6.68137 12.9208H6.6187H6.5874Z" fill="black" stroke="white" stroke-width="0.4"/>
</svg>
